<?xml version="1.0" encoding="utf-8" standalone="no"?>
<!DOCTYPE svg PUBLIC "-//W3C//DTD SVG 1.1//EN"
  "http://www.w3.org/Graphics/SVG/1.1/DTD/svg11.dtd">
<svg xmlns:xlink="http://www.w3.org/1999/xlink" width="1136.423968pt" height="572.761484pt" viewBox="0 0 1136.423968 572.761484" xmlns="http://www.w3.org/2000/svg" version="1.1">
 <metadata>
  <rdf:RDF xmlns:dc="http://purl.org/dc/elements/1.1/" xmlns:cc="http://creativecommons.org/ns#" xmlns:rdf="http://www.w3.org/1999/02/22-rdf-syntax-ns#">
   <cc:Work>
    <dc:type rdf:resource="http://purl.org/dc/dcmitype/StillImage"/>
    <dc:format>image/svg+xml</dc:format>
    <dc:creator>
     <cc:Agent>
      <dc:title>b20-gas-benchmark</dc:title>
     </cc:Agent>
    </dc:creator>
   </cc:Work>
  </rdf:RDF>
 </metadata>
 <defs>
  <style type="text/css">*{stroke-linejoin: round; stroke-linecap: butt}</style>
 </defs>
 <g id="figure_1">
  <g id="patch_1">
   <path d="M 0 572.761484 
L 1136.423968 572.761484 
L 1136.423968 0 
L 0 0 
z
" style="fill: #f7f9fc"/>
  </g>
  <g id="axes_1">
   <g id="patch_2">
    <path d="M 89.815542 453.782392 
L 1128.863968 453.782392 
L 1128.863968 45.637031 
L 89.815542 45.637031 
z
" style="fill: #f7f9fc"/>
   </g>
   <g id="matplotlib.axis_1">
    <g id="xtick_1">
     <g id="line2d_1">
      <defs>
       <path id="m5b55b655bf" d="M 0 0 
L 0 3.5 
" style="stroke: #526078; stroke-width: 0.8"/>
      </defs>
      <g>
       <use xlink:href="#m5b55b655bf" x="160.146389" y="453.782392" style="fill: #526078; stroke: #526078; stroke-width: 0.8"/>
      </g>
     </g>
     <g id="text_1">
      <!-- transfer: zero-balance recipient -->
      <g style="fill: #526078" transform="translate(11.123975 549.485354) rotate(-28) scale(0.11 -0.11)">
       <defs>
        <path id="DejaVuSans-57" d="M 1172 4494 
L 1172 3500 
L 2356 3500 
L 2356 3053 
L 1172 3053 
L 1172 1153 
Q 1172 725 1289 603 
Q 1406 481 1766 481 
L 2356 481 
L 2356 0 
L 1766 0 
Q 1100 0 847 248 
Q 594 497 594 1153 
L 594 3053 
L 172 3053 
L 172 3500 
L 594 3500 
L 594 4494 
L 1172 4494 
z
" transform="scale(0.015625)"/>
        <path id="DejaVuSans-55" d="M 2631 2963 
Q 2534 3019 2420 3045 
Q 2306 3072 2169 3072 
Q 1681 3072 1420 2755 
Q 1159 2438 1159 1844 
L 1159 0 
L 581 0 
L 581 3500 
L 1159 3500 
L 1159 2956 
Q 1341 3275 1631 3429 
Q 1922 3584 2338 3584 
Q 2397 3584 2469 3576 
Q 2541 3569 2628 3553 
L 2631 2963 
z
" transform="scale(0.015625)"/>
        <path id="DejaVuSans-44" d="M 2194 1759 
Q 1497 1759 1228 1600 
Q 959 1441 959 1056 
Q 959 750 1161 570 
Q 1363 391 1709 391 
Q 2188 391 2477 730 
Q 2766 1069 2766 1631 
L 2766 1759 
L 2194 1759 
z
M 3341 1997 
L 3341 0 
L 2766 0 
L 2766 531 
Q 2569 213 2275 61 
Q 1981 -91 1556 -91 
Q 1019 -91 701 211 
Q 384 513 384 1019 
Q 384 1609 779 1909 
Q 1175 2209 1959 2209 
L 2766 2209 
L 2766 2266 
Q 2766 2663 2505 2880 
Q 2244 3097 1772 3097 
Q 1472 3097 1187 3025 
Q 903 2953 641 2809 
L 641 3341 
Q 956 3463 1253 3523 
Q 1550 3584 1831 3584 
Q 2591 3584 2966 3190 
Q 3341 2797 3341 1997 
z
" transform="scale(0.015625)"/>
        <path id="DejaVuSans-51" d="M 3513 2113 
L 3513 0 
L 2938 0 
L 2938 2094 
Q 2938 2591 2744 2837 
Q 2550 3084 2163 3084 
Q 1697 3084 1428 2787 
Q 1159 2491 1159 1978 
L 1159 0 
L 581 0 
L 581 3500 
L 1159 3500 
L 1159 2956 
Q 1366 3272 1645 3428 
Q 1925 3584 2291 3584 
Q 2894 3584 3203 3211 
Q 3513 2838 3513 2113 
z
" transform="scale(0.015625)"/>
        <path id="DejaVuSans-56" d="M 2834 3397 
L 2834 2853 
Q 2591 2978 2328 3040 
Q 2066 3103 1784 3103 
Q 1356 3103 1142 2972 
Q 928 2841 928 2578 
Q 928 2378 1081 2264 
Q 1234 2150 1697 2047 
L 1894 2003 
Q 2506 1872 2764 1633 
Q 3022 1394 3022 966 
Q 3022 478 2636 193 
Q 2250 -91 1575 -91 
Q 1294 -91 989 -36 
Q 684 19 347 128 
L 347 722 
Q 666 556 975 473 
Q 1284 391 1588 391 
Q 1994 391 2212 530 
Q 2431 669 2431 922 
Q 2431 1156 2273 1281 
Q 2116 1406 1581 1522 
L 1381 1569 
Q 847 1681 609 1914 
Q 372 2147 372 2553 
Q 372 3047 722 3315 
Q 1072 3584 1716 3584 
Q 2034 3584 2315 3537 
Q 2597 3491 2834 3397 
z
" transform="scale(0.015625)"/>
        <path id="DejaVuSans-49" d="M 2375 4863 
L 2375 4384 
L 1825 4384 
Q 1516 4384 1395 4259 
Q 1275 4134 1275 3809 
L 1275 3500 
L 2222 3500 
L 2222 3053 
L 1275 3053 
L 1275 0 
L 697 0 
L 697 3053 
L 147 3053 
L 147 3500 
L 697 3500 
L 697 3744 
Q 697 4328 969 4595 
Q 1241 4863 1831 4863 
L 2375 4863 
z
" transform="scale(0.015625)"/>
        <path id="DejaVuSans-48" d="M 3597 1894 
L 3597 1613 
L 953 1613 
Q 991 1019 1311 708 
Q 1631 397 2203 397 
Q 2534 397 2845 478 
Q 3156 559 3463 722 
L 3463 178 
Q 3153 47 2828 -22 
Q 2503 -91 2169 -91 
Q 1331 -91 842 396 
Q 353 884 353 1716 
Q 353 2575 817 3079 
Q 1281 3584 2069 3584 
Q 2775 3584 3186 3129 
Q 3597 2675 3597 1894 
z
M 3022 2063 
Q 3016 2534 2758 2815 
Q 2500 3097 2075 3097 
Q 1594 3097 1305 2825 
Q 1016 2553 972 2059 
L 3022 2063 
z
" transform="scale(0.015625)"/>
        <path id="DejaVuSans-1d" d="M 750 794 
L 1409 794 
L 1409 0 
L 750 0 
L 750 794 
z
M 750 3309 
L 1409 3309 
L 1409 2516 
L 750 2516 
L 750 3309 
z
" transform="scale(0.015625)"/>
        <path id="DejaVuSans-3" transform="scale(0.015625)"/>
        <path id="DejaVuSans-5d" d="M 353 3500 
L 3084 3500 
L 3084 2975 
L 922 459 
L 3084 459 
L 3084 0 
L 275 0 
L 275 525 
L 2438 3041 
L 353 3041 
L 353 3500 
z
" transform="scale(0.015625)"/>
        <path id="DejaVuSans-52" d="M 1959 3097 
Q 1497 3097 1228 2736 
Q 959 2375 959 1747 
Q 959 1119 1226 758 
Q 1494 397 1959 397 
Q 2419 397 2687 759 
Q 2956 1122 2956 1747 
Q 2956 2369 2687 2733 
Q 2419 3097 1959 3097 
z
M 1959 3584 
Q 2709 3584 3137 3096 
Q 3566 2609 3566 1747 
Q 3566 888 3137 398 
Q 2709 -91 1959 -91 
Q 1206 -91 779 398 
Q 353 888 353 1747 
Q 353 2609 779 3096 
Q 1206 3584 1959 3584 
z
" transform="scale(0.015625)"/>
        <path id="DejaVuSans-10" d="M 313 2009 
L 1997 2009 
L 1997 1497 
L 313 1497 
L 313 2009 
z
" transform="scale(0.015625)"/>
        <path id="DejaVuSans-45" d="M 3116 1747 
Q 3116 2381 2855 2742 
Q 2594 3103 2138 3103 
Q 1681 3103 1420 2742 
Q 1159 2381 1159 1747 
Q 1159 1113 1420 752 
Q 1681 391 2138 391 
Q 2594 391 2855 752 
Q 3116 1113 3116 1747 
z
M 1159 2969 
Q 1341 3281 1617 3432 
Q 1894 3584 2278 3584 
Q 2916 3584 3314 3078 
Q 3713 2572 3713 1747 
Q 3713 922 3314 415 
Q 2916 -91 2278 -91 
Q 1894 -91 1617 61 
Q 1341 213 1159 525 
L 1159 0 
L 581 0 
L 581 4863 
L 1159 4863 
L 1159 2969 
z
" transform="scale(0.015625)"/>
        <path id="DejaVuSans-4f" d="M 603 4863 
L 1178 4863 
L 1178 0 
L 603 0 
L 603 4863 
z
" transform="scale(0.015625)"/>
        <path id="DejaVuSans-46" d="M 3122 3366 
L 3122 2828 
Q 2878 2963 2633 3030 
Q 2388 3097 2138 3097 
Q 1578 3097 1268 2742 
Q 959 2388 959 1747 
Q 959 1106 1268 751 
Q 1578 397 2138 397 
Q 2388 397 2633 464 
Q 2878 531 3122 666 
L 3122 134 
Q 2881 22 2623 -34 
Q 2366 -91 2075 -91 
Q 1284 -91 818 406 
Q 353 903 353 1747 
Q 353 2603 823 3093 
Q 1294 3584 2113 3584 
Q 2378 3584 2631 3529 
Q 2884 3475 3122 3366 
z
" transform="scale(0.015625)"/>
        <path id="DejaVuSans-4c" d="M 603 3500 
L 1178 3500 
L 1178 0 
L 603 0 
L 603 3500 
z
M 603 4863 
L 1178 4863 
L 1178 4134 
L 603 4134 
L 603 4863 
z
" transform="scale(0.015625)"/>
        <path id="DejaVuSans-53" d="M 1159 525 
L 1159 -1331 
L 581 -1331 
L 581 3500 
L 1159 3500 
L 1159 2969 
Q 1341 3281 1617 3432 
Q 1894 3584 2278 3584 
Q 2916 3584 3314 3078 
Q 3713 2572 3713 1747 
Q 3713 922 3314 415 
Q 2916 -91 2278 -91 
Q 1894 -91 1617 61 
Q 1341 213 1159 525 
z
M 3116 1747 
Q 3116 2381 2855 2742 
Q 2594 3103 2138 3103 
Q 1681 3103 1420 2742 
Q 1159 2381 1159 1747 
Q 1159 1113 1420 752 
Q 1681 391 2138 391 
Q 2594 391 2855 752 
Q 3116 1113 3116 1747 
z
" transform="scale(0.015625)"/>
       </defs>
       <use xlink:href="#DejaVuSans-57"/>
       <use xlink:href="#DejaVuSans-55" transform="translate(39.203125 0)"/>
       <use xlink:href="#DejaVuSans-44" transform="translate(80.3125 0)"/>
       <use xlink:href="#DejaVuSans-51" transform="translate(141.59375 0)"/>
       <use xlink:href="#DejaVuSans-56" transform="translate(204.96875 0)"/>
       <use xlink:href="#DejaVuSans-49" transform="translate(257.0625 0)"/>
       <use xlink:href="#DejaVuSans-48" transform="translate(292.265625 0)"/>
       <use xlink:href="#DejaVuSans-55" transform="translate(353.796875 0)"/>
       <use xlink:href="#DejaVuSans-1d" transform="translate(393.15625 0)"/>
       <use xlink:href="#DejaVuSans-3" transform="translate(426.84375 0)"/>
       <use xlink:href="#DejaVuSans-5d" transform="translate(458.625 0)"/>
       <use xlink:href="#DejaVuSans-48" transform="translate(511.109375 0)"/>
       <use xlink:href="#DejaVuSans-55" transform="translate(572.640625 0)"/>
       <use xlink:href="#DejaVuSans-52" transform="translate(611.546875 0)"/>
       <use xlink:href="#DejaVuSans-10" transform="translate(674.59375 0)"/>
       <use xlink:href="#DejaVuSans-45" transform="translate(710.671875 0)"/>
       <use xlink:href="#DejaVuSans-44" transform="translate(774.15625 0)"/>
       <use xlink:href="#DejaVuSans-4f" transform="translate(835.4375 0)"/>
       <use xlink:href="#DejaVuSans-44" transform="translate(863.21875 0)"/>
       <use xlink:href="#DejaVuSans-51" transform="translate(924.5 0)"/>
       <use xlink:href="#DejaVuSans-46" transform="translate(987.875 0)"/>
       <use xlink:href="#DejaVuSans-48" transform="translate(1042.859375 0)"/>
       <use xlink:href="#DejaVuSans-3" transform="translate(1104.390625 0)"/>
       <use xlink:href="#DejaVuSans-55" transform="translate(1136.171875 0)"/>
       <use xlink:href="#DejaVuSans-48" transform="translate(1175.078125 0)"/>
       <use xlink:href="#DejaVuSans-46" transform="translate(1236.609375 0)"/>
       <use xlink:href="#DejaVuSans-4c" transform="translate(1291.59375 0)"/>
       <use xlink:href="#DejaVuSans-53" transform="translate(1319.375 0)"/>
       <use xlink:href="#DejaVuSans-4c" transform="translate(1382.859375 0)"/>
       <use xlink:href="#DejaVuSans-48" transform="translate(1410.640625 0)"/>
       <use xlink:href="#DejaVuSans-51" transform="translate(1472.171875 0)"/>
       <use xlink:href="#DejaVuSans-57" transform="translate(1535.546875 0)"/>
      </g>
     </g>
    </g>
    <g id="xtick_2">
     <g id="line2d_2">
      <g>
       <use xlink:href="#m5b55b655bf" x="288.487351" y="453.782392" style="fill: #526078; stroke: #526078; stroke-width: 0.8"/>
      </g>
     </g>
     <g id="text_2">
      <!-- transfer: existing-balance recipient -->
      <g style="fill: #526078" transform="translate(122.301264 558.611441) rotate(-28) scale(0.11 -0.11)">
       <defs>
        <path id="DejaVuSans-5b" d="M 3513 3500 
L 2247 1797 
L 3578 0 
L 2900 0 
L 1881 1375 
L 863 0 
L 184 0 
L 1544 1831 
L 300 3500 
L 978 3500 
L 1906 2253 
L 2834 3500 
L 3513 3500 
z
" transform="scale(0.015625)"/>
        <path id="DejaVuSans-4a" d="M 2906 1791 
Q 2906 2416 2648 2759 
Q 2391 3103 1925 3103 
Q 1463 3103 1205 2759 
Q 947 2416 947 1791 
Q 947 1169 1205 825 
Q 1463 481 1925 481 
Q 2391 481 2648 825 
Q 2906 1169 2906 1791 
z
M 3481 434 
Q 3481 -459 3084 -895 
Q 2688 -1331 1869 -1331 
Q 1566 -1331 1297 -1286 
Q 1028 -1241 775 -1147 
L 775 -588 
Q 1028 -725 1275 -790 
Q 1522 -856 1778 -856 
Q 2344 -856 2625 -561 
Q 2906 -266 2906 331 
L 2906 616 
Q 2728 306 2450 153 
Q 2172 0 1784 0 
Q 1141 0 747 490 
Q 353 981 353 1791 
Q 353 2603 747 3093 
Q 1141 3584 1784 3584 
Q 2172 3584 2450 3431 
Q 2728 3278 2906 2969 
L 2906 3500 
L 3481 3500 
L 3481 434 
z
" transform="scale(0.015625)"/>
       </defs>
       <use xlink:href="#DejaVuSans-57"/>
       <use xlink:href="#DejaVuSans-55" transform="translate(39.203125 0)"/>
       <use xlink:href="#DejaVuSans-44" transform="translate(80.3125 0)"/>
       <use xlink:href="#DejaVuSans-51" transform="translate(141.59375 0)"/>
       <use xlink:href="#DejaVuSans-56" transform="translate(204.96875 0)"/>
       <use xlink:href="#DejaVuSans-49" transform="translate(257.0625 0)"/>
       <use xlink:href="#DejaVuSans-48" transform="translate(292.265625 0)"/>
       <use xlink:href="#DejaVuSans-55" transform="translate(353.796875 0)"/>
       <use xlink:href="#DejaVuSans-1d" transform="translate(393.15625 0)"/>
       <use xlink:href="#DejaVuSans-3" transform="translate(426.84375 0)"/>
       <use xlink:href="#DejaVuSans-48" transform="translate(458.625 0)"/>
       <use xlink:href="#DejaVuSans-5b" transform="translate(518.40625 0)"/>
       <use xlink:href="#DejaVuSans-4c" transform="translate(577.59375 0)"/>
       <use xlink:href="#DejaVuSans-56" transform="translate(605.375 0)"/>
       <use xlink:href="#DejaVuSans-57" transform="translate(657.46875 0)"/>
       <use xlink:href="#DejaVuSans-4c" transform="translate(696.671875 0)"/>
       <use xlink:href="#DejaVuSans-51" transform="translate(724.453125 0)"/>
       <use xlink:href="#DejaVuSans-4a" transform="translate(787.828125 0)"/>
       <use xlink:href="#DejaVuSans-10" transform="translate(851.3125 0)"/>
       <use xlink:href="#DejaVuSans-45" transform="translate(887.390625 0)"/>
       <use xlink:href="#DejaVuSans-44" transform="translate(950.875 0)"/>
       <use xlink:href="#DejaVuSans-4f" transform="translate(1012.15625 0)"/>
       <use xlink:href="#DejaVuSans-44" transform="translate(1039.9375 0)"/>
       <use xlink:href="#DejaVuSans-51" transform="translate(1101.21875 0)"/>
       <use xlink:href="#DejaVuSans-46" transform="translate(1164.59375 0)"/>
       <use xlink:href="#DejaVuSans-48" transform="translate(1219.578125 0)"/>
       <use xlink:href="#DejaVuSans-3" transform="translate(1281.109375 0)"/>
       <use xlink:href="#DejaVuSans-55" transform="translate(1312.890625 0)"/>
       <use xlink:href="#DejaVuSans-48" transform="translate(1351.796875 0)"/>
       <use xlink:href="#DejaVuSans-46" transform="translate(1413.328125 0)"/>
       <use xlink:href="#DejaVuSans-4c" transform="translate(1468.3125 0)"/>
       <use xlink:href="#DejaVuSans-53" transform="translate(1496.09375 0)"/>
       <use xlink:href="#DejaVuSans-4c" transform="translate(1559.578125 0)"/>
       <use xlink:href="#DejaVuSans-48" transform="translate(1587.359375 0)"/>
       <use xlink:href="#DejaVuSans-51" transform="translate(1648.890625 0)"/>
       <use xlink:href="#DejaVuSans-57" transform="translate(1712.265625 0)"/>
      </g>
     </g>
    </g>
    <g id="xtick_3">
     <g id="line2d_3">
      <g>
       <use xlink:href="#m5b55b655bf" x="416.828313" y="453.782392" style="fill: #526078; stroke: #526078; stroke-width: 0.8"/>
      </g>
     </g>
     <g id="text_3">
      <!-- approve: zero → nonzero -->
      <g style="fill: #526078" transform="translate(300.507529 532.096615) rotate(-28) scale(0.11 -0.11)">
       <defs>
        <path id="DejaVuSans-59" d="M 191 3500 
L 800 3500 
L 1894 563 
L 2988 3500 
L 3597 3500 
L 2284 0 
L 1503 0 
L 191 3500 
z
" transform="scale(0.015625)"/>
        <path id="DejaVuSans-c1c" d="M 5050 2147 
L 5050 1866 
L 3822 638 
L 3447 1013 
L 4175 1741 
L 366 1741 
L 366 2272 
L 4175 2272 
L 3447 3000 
L 3822 3375 
L 5050 2147 
z
" transform="scale(0.015625)"/>
       </defs>
       <use xlink:href="#DejaVuSans-44"/>
       <use xlink:href="#DejaVuSans-53" transform="translate(61.28125 0)"/>
       <use xlink:href="#DejaVuSans-53" transform="translate(124.765625 0)"/>
       <use xlink:href="#DejaVuSans-55" transform="translate(188.25 0)"/>
       <use xlink:href="#DejaVuSans-52" transform="translate(227.15625 0)"/>
       <use xlink:href="#DejaVuSans-59" transform="translate(288.34375 0)"/>
       <use xlink:href="#DejaVuSans-48" transform="translate(347.53125 0)"/>
       <use xlink:href="#DejaVuSans-1d" transform="translate(409.0625 0)"/>
       <use xlink:href="#DejaVuSans-3" transform="translate(442.75 0)"/>
       <use xlink:href="#DejaVuSans-5d" transform="translate(474.53125 0)"/>
       <use xlink:href="#DejaVuSans-48" transform="translate(527.015625 0)"/>
       <use xlink:href="#DejaVuSans-55" transform="translate(588.546875 0)"/>
       <use xlink:href="#DejaVuSans-52" transform="translate(627.453125 0)"/>
       <use xlink:href="#DejaVuSans-3" transform="translate(688.640625 0)"/>
       <use xlink:href="#DejaVuSans-c1c" transform="translate(720.421875 0)"/>
       <use xlink:href="#DejaVuSans-3" transform="translate(804.21875 0)"/>
       <use xlink:href="#DejaVuSans-51" transform="translate(836 0)"/>
       <use xlink:href="#DejaVuSans-52" transform="translate(899.375 0)"/>
       <use xlink:href="#DejaVuSans-51" transform="translate(960.5625 0)"/>
       <use xlink:href="#DejaVuSans-5d" transform="translate(1023.9375 0)"/>
       <use xlink:href="#DejaVuSans-48" transform="translate(1076.421875 0)"/>
       <use xlink:href="#DejaVuSans-55" transform="translate(1137.953125 0)"/>
       <use xlink:href="#DejaVuSans-52" transform="translate(1176.859375 0)"/>
      </g>
     </g>
    </g>
    <g id="xtick_4">
     <g id="line2d_4">
      <g>
       <use xlink:href="#m5b55b655bf" x="545.169274" y="453.782392" style="fill: #526078; stroke: #526078; stroke-width: 0.8"/>
      </g>
     </g>
     <g id="text_4">
      <!-- approve: nonzero → nonzero -->
      <g style="fill: #526078" transform="translate(410.595204 541.80206) rotate(-28) scale(0.11 -0.11)">
       <use xlink:href="#DejaVuSans-44"/>
       <use xlink:href="#DejaVuSans-53" transform="translate(61.28125 0)"/>
       <use xlink:href="#DejaVuSans-53" transform="translate(124.765625 0)"/>
       <use xlink:href="#DejaVuSans-55" transform="translate(188.25 0)"/>
       <use xlink:href="#DejaVuSans-52" transform="translate(227.15625 0)"/>
       <use xlink:href="#DejaVuSans-59" transform="translate(288.34375 0)"/>
       <use xlink:href="#DejaVuSans-48" transform="translate(347.53125 0)"/>
       <use xlink:href="#DejaVuSans-1d" transform="translate(409.0625 0)"/>
       <use xlink:href="#DejaVuSans-3" transform="translate(442.75 0)"/>
       <use xlink:href="#DejaVuSans-51" transform="translate(474.53125 0)"/>
       <use xlink:href="#DejaVuSans-52" transform="translate(537.90625 0)"/>
       <use xlink:href="#DejaVuSans-51" transform="translate(599.09375 0)"/>
       <use xlink:href="#DejaVuSans-5d" transform="translate(662.46875 0)"/>
       <use xlink:href="#DejaVuSans-48" transform="translate(714.953125 0)"/>
       <use xlink:href="#DejaVuSans-55" transform="translate(776.484375 0)"/>
       <use xlink:href="#DejaVuSans-52" transform="translate(815.390625 0)"/>
       <use xlink:href="#DejaVuSans-3" transform="translate(876.578125 0)"/>
       <use xlink:href="#DejaVuSans-c1c" transform="translate(908.359375 0)"/>
       <use xlink:href="#DejaVuSans-3" transform="translate(992.15625 0)"/>
       <use xlink:href="#DejaVuSans-51" transform="translate(1023.9375 0)"/>
       <use xlink:href="#DejaVuSans-52" transform="translate(1087.3125 0)"/>
       <use xlink:href="#DejaVuSans-51" transform="translate(1148.5 0)"/>
       <use xlink:href="#DejaVuSans-5d" transform="translate(1211.875 0)"/>
       <use xlink:href="#DejaVuSans-48" transform="translate(1264.359375 0)"/>
       <use xlink:href="#DejaVuSans-55" transform="translate(1325.890625 0)"/>
       <use xlink:href="#DejaVuSans-52" transform="translate(1364.796875 0)"/>
      </g>
     </g>
    </g>
    <g id="xtick_5">
     <g id="line2d_5">
      <g>
       <use xlink:href="#m5b55b655bf" x="673.510236" y="453.782392" style="fill: #526078; stroke: #526078; stroke-width: 0.8"/>
      </g>
     </g>
     <g id="text_5">
      <!-- transferFrom: finite allowance -->
      <g style="fill: #526078" transform="translate(532.160636 545.405646) rotate(-28) scale(0.11 -0.11)">
       <defs>
        <path id="DejaVuSans-29" d="M 628 4666 
L 3309 4666 
L 3309 4134 
L 1259 4134 
L 1259 2759 
L 3109 2759 
L 3109 2228 
L 1259 2228 
L 1259 0 
L 628 0 
L 628 4666 
z
" transform="scale(0.015625)"/>
        <path id="DejaVuSans-50" d="M 3328 2828 
Q 3544 3216 3844 3400 
Q 4144 3584 4550 3584 
Q 5097 3584 5394 3201 
Q 5691 2819 5691 2113 
L 5691 0 
L 5113 0 
L 5113 2094 
Q 5113 2597 4934 2840 
Q 4756 3084 4391 3084 
Q 3944 3084 3684 2787 
Q 3425 2491 3425 1978 
L 3425 0 
L 2847 0 
L 2847 2094 
Q 2847 2600 2669 2842 
Q 2491 3084 2119 3084 
Q 1678 3084 1418 2786 
Q 1159 2488 1159 1978 
L 1159 0 
L 581 0 
L 581 3500 
L 1159 3500 
L 1159 2956 
Q 1356 3278 1631 3431 
Q 1906 3584 2284 3584 
Q 2666 3584 2933 3390 
Q 3200 3197 3328 2828 
z
" transform="scale(0.015625)"/>
        <path id="DejaVuSans-13af" d="M 3431 3500 
L 3431 0 
L 2853 0 
L 2853 3053 
L 1275 3053 
L 1275 0 
L 697 0 
L 697 3053 
L 147 3053 
L 147 3500 
L 697 3500 
L 697 3744 
Q 697 4316 967 4589 
Q 1238 4863 1797 4863 
L 2375 4863 
L 2375 4384 
L 1825 4384 
Q 1516 4384 1395 4259 
Q 1275 4134 1275 3809 
L 1275 3500 
L 3431 3500 
z
M 2853 4856 
L 3431 4856 
L 3431 4128 
L 2853 4128 
L 2853 4856 
z
" transform="scale(0.015625)"/>
        <path id="DejaVuSans-5a" d="M 269 3500 
L 844 3500 
L 1563 769 
L 2278 3500 
L 2956 3500 
L 3675 769 
L 4391 3500 
L 4966 3500 
L 4050 0 
L 3372 0 
L 2619 2869 
L 1863 0 
L 1184 0 
L 269 3500 
z
" transform="scale(0.015625)"/>
       </defs>
       <use xlink:href="#DejaVuSans-57"/>
       <use xlink:href="#DejaVuSans-55" transform="translate(39.203125 0)"/>
       <use xlink:href="#DejaVuSans-44" transform="translate(80.3125 0)"/>
       <use xlink:href="#DejaVuSans-51" transform="translate(141.59375 0)"/>
       <use xlink:href="#DejaVuSans-56" transform="translate(204.96875 0)"/>
       <use xlink:href="#DejaVuSans-49" transform="translate(257.0625 0)"/>
       <use xlink:href="#DejaVuSans-48" transform="translate(292.265625 0)"/>
       <use xlink:href="#DejaVuSans-55" transform="translate(353.796875 0)"/>
       <use xlink:href="#DejaVuSans-29" transform="translate(394.90625 0)"/>
       <use xlink:href="#DejaVuSans-55" transform="translate(445.140625 0)"/>
       <use xlink:href="#DejaVuSans-52" transform="translate(484.046875 0)"/>
       <use xlink:href="#DejaVuSans-50" transform="translate(545.234375 0)"/>
       <use xlink:href="#DejaVuSans-1d" transform="translate(642.640625 0)"/>
       <use xlink:href="#DejaVuSans-3" transform="translate(676.328125 0)"/>
       <use xlink:href="#DejaVuSans-13af" transform="translate(708.109375 0)"/>
       <use xlink:href="#DejaVuSans-51" transform="translate(771.09375 0)"/>
       <use xlink:href="#DejaVuSans-4c" transform="translate(834.46875 0)"/>
       <use xlink:href="#DejaVuSans-57" transform="translate(862.25 0)"/>
       <use xlink:href="#DejaVuSans-48" transform="translate(901.453125 0)"/>
       <use xlink:href="#DejaVuSans-3" transform="translate(962.984375 0)"/>
       <use xlink:href="#DejaVuSans-44" transform="translate(994.765625 0)"/>
       <use xlink:href="#DejaVuSans-4f" transform="translate(1056.046875 0)"/>
       <use xlink:href="#DejaVuSans-4f" transform="translate(1083.828125 0)"/>
       <use xlink:href="#DejaVuSans-52" transform="translate(1111.609375 0)"/>
       <use xlink:href="#DejaVuSans-5a" transform="translate(1172.796875 0)"/>
       <use xlink:href="#DejaVuSans-44" transform="translate(1254.578125 0)"/>
       <use xlink:href="#DejaVuSans-51" transform="translate(1315.859375 0)"/>
       <use xlink:href="#DejaVuSans-46" transform="translate(1379.234375 0)"/>
       <use xlink:href="#DejaVuSans-48" transform="translate(1434.21875 0)"/>
      </g>
     </g>
    </g>
    <g id="xtick_6">
     <g id="line2d_6">
      <g>
       <use xlink:href="#m5b55b655bf" x="801.851197" y="453.782392" style="fill: #526078; stroke: #526078; stroke-width: 0.8"/>
      </g>
     </g>
     <g id="text_6">
      <!-- transferFrom: max allowance -->
      <g style="fill: #526078" transform="translate(664.095195 543.494897) rotate(-28) scale(0.11 -0.11)">
       <use xlink:href="#DejaVuSans-57"/>
       <use xlink:href="#DejaVuSans-55" transform="translate(39.203125 0)"/>
       <use xlink:href="#DejaVuSans-44" transform="translate(80.3125 0)"/>
       <use xlink:href="#DejaVuSans-51" transform="translate(141.59375 0)"/>
       <use xlink:href="#DejaVuSans-56" transform="translate(204.96875 0)"/>
       <use xlink:href="#DejaVuSans-49" transform="translate(257.0625 0)"/>
       <use xlink:href="#DejaVuSans-48" transform="translate(292.265625 0)"/>
       <use xlink:href="#DejaVuSans-55" transform="translate(353.796875 0)"/>
       <use xlink:href="#DejaVuSans-29" transform="translate(394.90625 0)"/>
       <use xlink:href="#DejaVuSans-55" transform="translate(445.140625 0)"/>
       <use xlink:href="#DejaVuSans-52" transform="translate(484.046875 0)"/>
       <use xlink:href="#DejaVuSans-50" transform="translate(545.234375 0)"/>
       <use xlink:href="#DejaVuSans-1d" transform="translate(642.640625 0)"/>
       <use xlink:href="#DejaVuSans-3" transform="translate(676.328125 0)"/>
       <use xlink:href="#DejaVuSans-50" transform="translate(708.109375 0)"/>
       <use xlink:href="#DejaVuSans-44" transform="translate(805.515625 0)"/>
       <use xlink:href="#DejaVuSans-5b" transform="translate(866.796875 0)"/>
       <use xlink:href="#DejaVuSans-3" transform="translate(925.984375 0)"/>
       <use xlink:href="#DejaVuSans-44" transform="translate(957.765625 0)"/>
       <use xlink:href="#DejaVuSans-4f" transform="translate(1019.046875 0)"/>
       <use xlink:href="#DejaVuSans-4f" transform="translate(1046.828125 0)"/>
       <use xlink:href="#DejaVuSans-52" transform="translate(1074.609375 0)"/>
       <use xlink:href="#DejaVuSans-5a" transform="translate(1135.796875 0)"/>
       <use xlink:href="#DejaVuSans-44" transform="translate(1217.578125 0)"/>
       <use xlink:href="#DejaVuSans-51" transform="translate(1278.859375 0)"/>
       <use xlink:href="#DejaVuSans-46" transform="translate(1342.234375 0)"/>
       <use xlink:href="#DejaVuSans-48" transform="translate(1397.21875 0)"/>
      </g>
     </g>
    </g>
    <g id="xtick_7">
     <g id="line2d_7">
      <g>
       <use xlink:href="#m5b55b655bf" x="930.192159" y="453.782392" style="fill: #526078; stroke: #526078; stroke-width: 0.8"/>
      </g>
     </g>
     <g id="text_7">
      <!-- mint: zero-balance recipient -->
      <g style="fill: #526078" transform="translate(797.233183 540.944272) rotate(-28) scale(0.11 -0.11)">
       <use xlink:href="#DejaVuSans-50"/>
       <use xlink:href="#DejaVuSans-4c" transform="translate(97.40625 0)"/>
       <use xlink:href="#DejaVuSans-51" transform="translate(125.1875 0)"/>
       <use xlink:href="#DejaVuSans-57" transform="translate(188.5625 0)"/>
       <use xlink:href="#DejaVuSans-1d" transform="translate(227.765625 0)"/>
       <use xlink:href="#DejaVuSans-3" transform="translate(261.453125 0)"/>
       <use xlink:href="#DejaVuSans-5d" transform="translate(293.234375 0)"/>
       <use xlink:href="#DejaVuSans-48" transform="translate(345.71875 0)"/>
       <use xlink:href="#DejaVuSans-55" transform="translate(407.25 0)"/>
       <use xlink:href="#DejaVuSans-52" transform="translate(446.15625 0)"/>
       <use xlink:href="#DejaVuSans-10" transform="translate(509.203125 0)"/>
       <use xlink:href="#DejaVuSans-45" transform="translate(545.28125 0)"/>
       <use xlink:href="#DejaVuSans-44" transform="translate(608.765625 0)"/>
       <use xlink:href="#DejaVuSans-4f" transform="translate(670.046875 0)"/>
       <use xlink:href="#DejaVuSans-44" transform="translate(697.828125 0)"/>
       <use xlink:href="#DejaVuSans-51" transform="translate(759.109375 0)"/>
       <use xlink:href="#DejaVuSans-46" transform="translate(822.484375 0)"/>
       <use xlink:href="#DejaVuSans-48" transform="translate(877.46875 0)"/>
       <use xlink:href="#DejaVuSans-3" transform="translate(939 0)"/>
       <use xlink:href="#DejaVuSans-55" transform="translate(970.78125 0)"/>
       <use xlink:href="#DejaVuSans-48" transform="translate(1009.6875 0)"/>
       <use xlink:href="#DejaVuSans-46" transform="translate(1071.21875 0)"/>
       <use xlink:href="#DejaVuSans-4c" transform="translate(1126.203125 0)"/>
       <use xlink:href="#DejaVuSans-53" transform="translate(1153.984375 0)"/>
       <use xlink:href="#DejaVuSans-4c" transform="translate(1217.46875 0)"/>
       <use xlink:href="#DejaVuSans-48" transform="translate(1245.25 0)"/>
       <use xlink:href="#DejaVuSans-51" transform="translate(1306.78125 0)"/>
       <use xlink:href="#DejaVuSans-57" transform="translate(1370.15625 0)"/>
      </g>
     </g>
    </g>
    <g id="xtick_8">
     <g id="line2d_8">
      <g>
       <use xlink:href="#m5b55b655bf" x="1058.533121" y="453.782392" style="fill: #526078; stroke: #526078; stroke-width: 0.8"/>
      </g>
     </g>
     <g id="text_8">
      <!-- mint: existing-balance recipient -->
      <g style="fill: #526078" transform="translate(908.410471 550.070359) rotate(-28) scale(0.11 -0.11)">
       <use xlink:href="#DejaVuSans-50"/>
       <use xlink:href="#DejaVuSans-4c" transform="translate(97.40625 0)"/>
       <use xlink:href="#DejaVuSans-51" transform="translate(125.1875 0)"/>
       <use xlink:href="#DejaVuSans-57" transform="translate(188.5625 0)"/>
       <use xlink:href="#DejaVuSans-1d" transform="translate(227.765625 0)"/>
       <use xlink:href="#DejaVuSans-3" transform="translate(261.453125 0)"/>
       <use xlink:href="#DejaVuSans-48" transform="translate(293.234375 0)"/>
       <use xlink:href="#DejaVuSans-5b" transform="translate(353.015625 0)"/>
       <use xlink:href="#DejaVuSans-4c" transform="translate(412.203125 0)"/>
       <use xlink:href="#DejaVuSans-56" transform="translate(439.984375 0)"/>
       <use xlink:href="#DejaVuSans-57" transform="translate(492.078125 0)"/>
       <use xlink:href="#DejaVuSans-4c" transform="translate(531.28125 0)"/>
       <use xlink:href="#DejaVuSans-51" transform="translate(559.0625 0)"/>
       <use xlink:href="#DejaVuSans-4a" transform="translate(622.4375 0)"/>
       <use xlink:href="#DejaVuSans-10" transform="translate(685.921875 0)"/>
       <use xlink:href="#DejaVuSans-45" transform="translate(722 0)"/>
       <use xlink:href="#DejaVuSans-44" transform="translate(785.484375 0)"/>
       <use xlink:href="#DejaVuSans-4f" transform="translate(846.765625 0)"/>
       <use xlink:href="#DejaVuSans-44" transform="translate(874.546875 0)"/>
       <use xlink:href="#DejaVuSans-51" transform="translate(935.828125 0)"/>
       <use xlink:href="#DejaVuSans-46" transform="translate(999.203125 0)"/>
       <use xlink:href="#DejaVuSans-48" transform="translate(1054.1875 0)"/>
       <use xlink:href="#DejaVuSans-3" transform="translate(1115.71875 0)"/>
       <use xlink:href="#DejaVuSans-55" transform="translate(1147.5 0)"/>
       <use xlink:href="#DejaVuSans-48" transform="translate(1186.40625 0)"/>
       <use xlink:href="#DejaVuSans-46" transform="translate(1247.9375 0)"/>
       <use xlink:href="#DejaVuSans-4c" transform="translate(1302.921875 0)"/>
       <use xlink:href="#DejaVuSans-53" transform="translate(1330.703125 0)"/>
       <use xlink:href="#DejaVuSans-4c" transform="translate(1394.1875 0)"/>
       <use xlink:href="#DejaVuSans-48" transform="translate(1421.96875 0)"/>
       <use xlink:href="#DejaVuSans-51" transform="translate(1483.5 0)"/>
       <use xlink:href="#DejaVuSans-57" transform="translate(1546.875 0)"/>
      </g>
     </g>
    </g>
   </g>
   <g id="matplotlib.axis_2">
    <g id="ytick_1">
     <g id="line2d_9">
      <path d="M 89.815542 445.900691 
L 1128.863968 445.900691 
" clip-path="url(#pa1bcdd47ee)" style="fill: none; stroke: #dde4ee; stroke-linecap: square"/>
     </g>
     <g id="line2d_10">
      <defs>
       <path id="me92d001c4b" d="M 0 0 
L -3.5 0 
" style="stroke: #526078; stroke-width: 0.8"/>
      </defs>
      <g>
       <use xlink:href="#me92d001c4b" x="89.815542" y="445.900691" style="fill: #526078; stroke: #526078; stroke-width: 0.8"/>
      </g>
     </g>
     <g id="text_9">
      <!-- −20.0 -->
      <g style="fill: #526078" transform="translate(49.105699 450.079402) scale(0.11 -0.11)">
       <defs>
        <path id="DejaVuSans-c9c" d="M 678 2272 
L 4684 2272 
L 4684 1741 
L 678 1741 
L 678 2272 
z
" transform="scale(0.015625)"/>
        <path id="DejaVuSans-15" d="M 1228 531 
L 3431 531 
L 3431 0 
L 469 0 
L 469 531 
Q 828 903 1448 1529 
Q 2069 2156 2228 2338 
Q 2531 2678 2651 2914 
Q 2772 3150 2772 3378 
Q 2772 3750 2511 3984 
Q 2250 4219 1831 4219 
Q 1534 4219 1204 4116 
Q 875 4013 500 3803 
L 500 4441 
Q 881 4594 1212 4672 
Q 1544 4750 1819 4750 
Q 2544 4750 2975 4387 
Q 3406 4025 3406 3419 
Q 3406 3131 3298 2873 
Q 3191 2616 2906 2266 
Q 2828 2175 2409 1742 
Q 1991 1309 1228 531 
z
" transform="scale(0.015625)"/>
        <path id="DejaVuSans-13" d="M 2034 4250 
Q 1547 4250 1301 3770 
Q 1056 3291 1056 2328 
Q 1056 1369 1301 889 
Q 1547 409 2034 409 
Q 2525 409 2770 889 
Q 3016 1369 3016 2328 
Q 3016 3291 2770 3770 
Q 2525 4250 2034 4250 
z
M 2034 4750 
Q 2819 4750 3233 4129 
Q 3647 3509 3647 2328 
Q 3647 1150 3233 529 
Q 2819 -91 2034 -91 
Q 1250 -91 836 529 
Q 422 1150 422 2328 
Q 422 3509 836 4129 
Q 1250 4750 2034 4750 
z
" transform="scale(0.015625)"/>
        <path id="DejaVuSans-11" d="M 684 794 
L 1344 794 
L 1344 0 
L 684 0 
L 684 794 
z
" transform="scale(0.015625)"/>
       </defs>
       <use xlink:href="#DejaVuSans-c9c"/>
       <use xlink:href="#DejaVuSans-15" transform="translate(83.796875 0)"/>
       <use xlink:href="#DejaVuSans-13" transform="translate(147.421875 0)"/>
       <use xlink:href="#DejaVuSans-11" transform="translate(211.046875 0)"/>
       <use xlink:href="#DejaVuSans-13" transform="translate(242.828125 0)"/>
      </g>
     </g>
    </g>
    <g id="ytick_2">
     <g id="line2d_11">
      <path d="M 89.815542 395.867733 
L 1128.863968 395.867733 
" clip-path="url(#pa1bcdd47ee)" style="fill: none; stroke: #dde4ee; stroke-linecap: square"/>
     </g>
     <g id="line2d_12">
      <g>
       <use xlink:href="#me92d001c4b" x="89.815542" y="395.867733" style="fill: #526078; stroke: #526078; stroke-width: 0.8"/>
      </g>
     </g>
     <g id="text_10">
      <!-- −17.5 -->
      <g style="fill: #526078" transform="translate(49.105699 400.046444) scale(0.11 -0.11)">
       <defs>
        <path id="DejaVuSans-14" d="M 794 531 
L 1825 531 
L 1825 4091 
L 703 3866 
L 703 4441 
L 1819 4666 
L 2450 4666 
L 2450 531 
L 3481 531 
L 3481 0 
L 794 0 
L 794 531 
z
" transform="scale(0.015625)"/>
        <path id="DejaVuSans-1a" d="M 525 4666 
L 3525 4666 
L 3525 4397 
L 1831 0 
L 1172 0 
L 2766 4134 
L 525 4134 
L 525 4666 
z
" transform="scale(0.015625)"/>
        <path id="DejaVuSans-18" d="M 691 4666 
L 3169 4666 
L 3169 4134 
L 1269 4134 
L 1269 2991 
Q 1406 3038 1543 3061 
Q 1681 3084 1819 3084 
Q 2600 3084 3056 2656 
Q 3513 2228 3513 1497 
Q 3513 744 3044 326 
Q 2575 -91 1722 -91 
Q 1428 -91 1123 -41 
Q 819 9 494 109 
L 494 744 
Q 775 591 1075 516 
Q 1375 441 1709 441 
Q 2250 441 2565 725 
Q 2881 1009 2881 1497 
Q 2881 1984 2565 2268 
Q 2250 2553 1709 2553 
Q 1456 2553 1204 2497 
Q 953 2441 691 2322 
L 691 4666 
z
" transform="scale(0.015625)"/>
       </defs>
       <use xlink:href="#DejaVuSans-c9c"/>
       <use xlink:href="#DejaVuSans-14" transform="translate(83.796875 0)"/>
       <use xlink:href="#DejaVuSans-1a" transform="translate(147.421875 0)"/>
       <use xlink:href="#DejaVuSans-11" transform="translate(211.046875 0)"/>
       <use xlink:href="#DejaVuSans-18" transform="translate(242.828125 0)"/>
      </g>
     </g>
    </g>
    <g id="ytick_3">
     <g id="line2d_13">
      <path d="M 89.815542 345.834776 
L 1128.863968 345.834776 
" clip-path="url(#pa1bcdd47ee)" style="fill: none; stroke: #dde4ee; stroke-linecap: square"/>
     </g>
     <g id="line2d_14">
      <g>
       <use xlink:href="#me92d001c4b" x="89.815542" y="345.834776" style="fill: #526078; stroke: #526078; stroke-width: 0.8"/>
      </g>
     </g>
     <g id="text_11">
      <!-- −15.0 -->
      <g style="fill: #526078" transform="translate(49.105699 350.013487) scale(0.11 -0.11)">
       <use xlink:href="#DejaVuSans-c9c"/>
       <use xlink:href="#DejaVuSans-14" transform="translate(83.796875 0)"/>
       <use xlink:href="#DejaVuSans-18" transform="translate(147.421875 0)"/>
       <use xlink:href="#DejaVuSans-11" transform="translate(211.046875 0)"/>
       <use xlink:href="#DejaVuSans-13" transform="translate(242.828125 0)"/>
      </g>
     </g>
    </g>
    <g id="ytick_4">
     <g id="line2d_15">
      <path d="M 89.815542 295.801819 
L 1128.863968 295.801819 
" clip-path="url(#pa1bcdd47ee)" style="fill: none; stroke: #dde4ee; stroke-linecap: square"/>
     </g>
     <g id="line2d_16">
      <g>
       <use xlink:href="#me92d001c4b" x="89.815542" y="295.801819" style="fill: #526078; stroke: #526078; stroke-width: 0.8"/>
      </g>
     </g>
     <g id="text_12">
      <!-- −12.5 -->
      <g style="fill: #526078" transform="translate(49.105699 299.980529) scale(0.11 -0.11)">
       <use xlink:href="#DejaVuSans-c9c"/>
       <use xlink:href="#DejaVuSans-14" transform="translate(83.796875 0)"/>
       <use xlink:href="#DejaVuSans-15" transform="translate(147.421875 0)"/>
       <use xlink:href="#DejaVuSans-11" transform="translate(211.046875 0)"/>
       <use xlink:href="#DejaVuSans-18" transform="translate(242.828125 0)"/>
      </g>
     </g>
    </g>
    <g id="ytick_5">
     <g id="line2d_17">
      <path d="M 89.815542 245.768861 
L 1128.863968 245.768861 
" clip-path="url(#pa1bcdd47ee)" style="fill: none; stroke: #dde4ee; stroke-linecap: square"/>
     </g>
     <g id="line2d_18">
      <g>
       <use xlink:href="#me92d001c4b" x="89.815542" y="245.768861" style="fill: #526078; stroke: #526078; stroke-width: 0.8"/>
      </g>
     </g>
     <g id="text_13">
      <!-- −10.0 -->
      <g style="fill: #526078" transform="translate(49.105699 249.947572) scale(0.11 -0.11)">
       <use xlink:href="#DejaVuSans-c9c"/>
       <use xlink:href="#DejaVuSans-14" transform="translate(83.796875 0)"/>
       <use xlink:href="#DejaVuSans-13" transform="translate(147.421875 0)"/>
       <use xlink:href="#DejaVuSans-11" transform="translate(211.046875 0)"/>
       <use xlink:href="#DejaVuSans-13" transform="translate(242.828125 0)"/>
      </g>
     </g>
    </g>
    <g id="ytick_6">
     <g id="line2d_19">
      <path d="M 89.815542 195.735904 
L 1128.863968 195.735904 
" clip-path="url(#pa1bcdd47ee)" style="fill: none; stroke: #dde4ee; stroke-linecap: square"/>
     </g>
     <g id="line2d_20">
      <g>
       <use xlink:href="#me92d001c4b" x="89.815542" y="195.735904" style="fill: #526078; stroke: #526078; stroke-width: 0.8"/>
      </g>
     </g>
     <g id="text_14">
      <!-- −7.5 -->
      <g style="fill: #526078" transform="translate(56.104449 199.914615) scale(0.11 -0.11)">
       <use xlink:href="#DejaVuSans-c9c"/>
       <use xlink:href="#DejaVuSans-1a" transform="translate(83.796875 0)"/>
       <use xlink:href="#DejaVuSans-11" transform="translate(147.421875 0)"/>
       <use xlink:href="#DejaVuSans-18" transform="translate(179.203125 0)"/>
      </g>
     </g>
    </g>
    <g id="ytick_7">
     <g id="line2d_21">
      <path d="M 89.815542 145.702946 
L 1128.863968 145.702946 
" clip-path="url(#pa1bcdd47ee)" style="fill: none; stroke: #dde4ee; stroke-linecap: square"/>
     </g>
     <g id="line2d_22">
      <g>
       <use xlink:href="#me92d001c4b" x="89.815542" y="145.702946" style="fill: #526078; stroke: #526078; stroke-width: 0.8"/>
      </g>
     </g>
     <g id="text_15">
      <!-- −5.0 -->
      <g style="fill: #526078" transform="translate(56.104449 149.881657) scale(0.11 -0.11)">
       <use xlink:href="#DejaVuSans-c9c"/>
       <use xlink:href="#DejaVuSans-18" transform="translate(83.796875 0)"/>
       <use xlink:href="#DejaVuSans-11" transform="translate(147.421875 0)"/>
       <use xlink:href="#DejaVuSans-13" transform="translate(179.203125 0)"/>
      </g>
     </g>
    </g>
    <g id="ytick_8">
     <g id="line2d_23">
      <path d="M 89.815542 95.669989 
L 1128.863968 95.669989 
" clip-path="url(#pa1bcdd47ee)" style="fill: none; stroke: #dde4ee; stroke-linecap: square"/>
     </g>
     <g id="line2d_24">
      <g>
       <use xlink:href="#me92d001c4b" x="89.815542" y="95.669989" style="fill: #526078; stroke: #526078; stroke-width: 0.8"/>
      </g>
     </g>
     <g id="text_16">
      <!-- −2.5 -->
      <g style="fill: #526078" transform="translate(56.104449 99.8487) scale(0.11 -0.11)">
       <use xlink:href="#DejaVuSans-c9c"/>
       <use xlink:href="#DejaVuSans-15" transform="translate(83.796875 0)"/>
       <use xlink:href="#DejaVuSans-11" transform="translate(147.421875 0)"/>
       <use xlink:href="#DejaVuSans-18" transform="translate(179.203125 0)"/>
      </g>
     </g>
    </g>
    <g id="ytick_9">
     <g id="line2d_25">
      <path d="M 89.815542 45.637031 
L 1128.863968 45.637031 
" clip-path="url(#pa1bcdd47ee)" style="fill: none; stroke: #dde4ee; stroke-linecap: square"/>
     </g>
     <g id="line2d_26">
      <g>
       <use xlink:href="#me92d001c4b" x="89.815542" y="45.637031" style="fill: #526078; stroke: #526078; stroke-width: 0.8"/>
      </g>
     </g>
     <g id="text_17">
      <!-- 0.0 -->
      <g style="fill: #526078" transform="translate(65.322105 49.815742) scale(0.11 -0.11)">
       <use xlink:href="#DejaVuSans-13"/>
       <use xlink:href="#DejaVuSans-11" transform="translate(63.625 0)"/>
       <use xlink:href="#DejaVuSans-13" transform="translate(95.40625 0)"/>
      </g>
     </g>
    </g>
    <g id="text_18">
     <!-- Percentage difference in gas used (%) -->
     <g style="fill: #526078" transform="translate(34.463121 354.48643) rotate(-90) scale(0.11 -0.11)">
      <defs>
       <path id="DejaVuSans-33" d="M 1259 4147 
L 1259 2394 
L 2053 2394 
Q 2494 2394 2734 2622 
Q 2975 2850 2975 3272 
Q 2975 3691 2734 3919 
Q 2494 4147 2053 4147 
L 1259 4147 
z
M 628 4666 
L 2053 4666 
Q 2838 4666 3239 4311 
Q 3641 3956 3641 3272 
Q 3641 2581 3239 2228 
Q 2838 1875 2053 1875 
L 1259 1875 
L 1259 0 
L 628 0 
L 628 4666 
z
" transform="scale(0.015625)"/>
       <path id="DejaVuSans-47" d="M 2906 2969 
L 2906 4863 
L 3481 4863 
L 3481 0 
L 2906 0 
L 2906 525 
Q 2725 213 2448 61 
Q 2172 -91 1784 -91 
Q 1150 -91 751 415 
Q 353 922 353 1747 
Q 353 2572 751 3078 
Q 1150 3584 1784 3584 
Q 2172 3584 2448 3432 
Q 2725 3281 2906 2969 
z
M 947 1747 
Q 947 1113 1208 752 
Q 1469 391 1925 391 
Q 2381 391 2643 752 
Q 2906 1113 2906 1747 
Q 2906 2381 2643 2742 
Q 2381 3103 1925 3103 
Q 1469 3103 1208 2742 
Q 947 2381 947 1747 
z
" transform="scale(0.015625)"/>
       <path id="DejaVuSans-13ae" d="M 4531 4863 
L 4531 4384 
L 3981 4384 
Q 3672 4384 3551 4259 
Q 3431 4134 3431 3809 
L 3431 3500 
L 4378 3500 
L 4378 3053 
L 3431 3053 
L 3431 0 
L 2853 0 
L 2853 3053 
L 1275 3053 
L 1275 0 
L 697 0 
L 697 3053 
L 147 3053 
L 147 3500 
L 697 3500 
L 697 3744 
Q 697 4328 969 4595 
Q 1241 4863 1831 4863 
L 2375 4863 
L 2375 4384 
L 1825 4384 
Q 1516 4384 1394 4259 
Q 1275 4134 1275 3809 
L 1275 3500 
L 2853 3500 
L 2853 3744 
Q 2853 4328 3125 4595 
Q 3397 4863 3988 4863 
L 4531 4863 
z
" transform="scale(0.015625)"/>
       <path id="DejaVuSans-58" d="M 544 1381 
L 544 3500 
L 1119 3500 
L 1119 1403 
Q 1119 906 1312 657 
Q 1506 409 1894 409 
Q 2359 409 2629 706 
Q 2900 1003 2900 1516 
L 2900 3500 
L 3475 3500 
L 3475 0 
L 2900 0 
L 2900 538 
Q 2691 219 2414 64 
Q 2138 -91 1772 -91 
Q 1169 -91 856 284 
Q 544 659 544 1381 
z
M 1991 3584 
L 1991 3584 
z
" transform="scale(0.015625)"/>
       <path id="DejaVuSans-b" d="M 1984 4856 
Q 1566 4138 1362 3434 
Q 1159 2731 1159 2009 
Q 1159 1288 1364 580 
Q 1569 -128 1984 -844 
L 1484 -844 
Q 1016 -109 783 600 
Q 550 1309 550 2009 
Q 550 2706 781 3412 
Q 1013 4119 1484 4856 
L 1984 4856 
z
" transform="scale(0.015625)"/>
       <path id="DejaVuSans-8" d="M 4653 2053 
Q 4381 2053 4226 1822 
Q 4072 1591 4072 1178 
Q 4072 772 4226 539 
Q 4381 306 4653 306 
Q 4919 306 5073 539 
Q 5228 772 5228 1178 
Q 5228 1588 5073 1820 
Q 4919 2053 4653 2053 
z
M 4653 2450 
Q 5147 2450 5437 2106 
Q 5728 1763 5728 1178 
Q 5728 594 5436 251 
Q 5144 -91 4653 -91 
Q 4153 -91 3862 251 
Q 3572 594 3572 1178 
Q 3572 1766 3864 2108 
Q 4156 2450 4653 2450 
z
M 1428 4353 
Q 1159 4353 1004 4120 
Q 850 3888 850 3481 
Q 850 3069 1003 2837 
Q 1156 2606 1428 2606 
Q 1700 2606 1854 2837 
Q 2009 3069 2009 3481 
Q 2009 3884 1853 4118 
Q 1697 4353 1428 4353 
z
M 4250 4750 
L 4750 4750 
L 1831 -91 
L 1331 -91 
L 4250 4750 
z
M 1428 4750 
Q 1922 4750 2215 4408 
Q 2509 4066 2509 3481 
Q 2509 2891 2217 2550 
Q 1925 2209 1428 2209 
Q 931 2209 642 2551 
Q 353 2894 353 3481 
Q 353 4063 643 4406 
Q 934 4750 1428 4750 
z
" transform="scale(0.015625)"/>
       <path id="DejaVuSans-c" d="M 513 4856 
L 1013 4856 
Q 1481 4119 1714 3412 
Q 1947 2706 1947 2009 
Q 1947 1309 1714 600 
Q 1481 -109 1013 -844 
L 513 -844 
Q 928 -128 1133 580 
Q 1338 1288 1338 2009 
Q 1338 2731 1133 3434 
Q 928 4138 513 4856 
z
" transform="scale(0.015625)"/>
      </defs>
      <use xlink:href="#DejaVuSans-33"/>
      <use xlink:href="#DejaVuSans-48" transform="translate(56.734375 0)"/>
      <use xlink:href="#DejaVuSans-55" transform="translate(118.265625 0)"/>
      <use xlink:href="#DejaVuSans-46" transform="translate(157.171875 0)"/>
      <use xlink:href="#DejaVuSans-48" transform="translate(212.15625 0)"/>
      <use xlink:href="#DejaVuSans-51" transform="translate(273.6875 0)"/>
      <use xlink:href="#DejaVuSans-57" transform="translate(337.0625 0)"/>
      <use xlink:href="#DejaVuSans-44" transform="translate(376.265625 0)"/>
      <use xlink:href="#DejaVuSans-4a" transform="translate(437.546875 0)"/>
      <use xlink:href="#DejaVuSans-48" transform="translate(501.03125 0)"/>
      <use xlink:href="#DejaVuSans-3" transform="translate(562.5625 0)"/>
      <use xlink:href="#DejaVuSans-47" transform="translate(594.34375 0)"/>
      <use xlink:href="#DejaVuSans-4c" transform="translate(657.828125 0)"/>
      <use xlink:href="#DejaVuSans-13ae" transform="translate(685.609375 0)"/>
      <use xlink:href="#DejaVuSans-48" transform="translate(754.5 0)"/>
      <use xlink:href="#DejaVuSans-55" transform="translate(816.03125 0)"/>
      <use xlink:href="#DejaVuSans-48" transform="translate(854.9375 0)"/>
      <use xlink:href="#DejaVuSans-51" transform="translate(916.46875 0)"/>
      <use xlink:href="#DejaVuSans-46" transform="translate(979.84375 0)"/>
      <use xlink:href="#DejaVuSans-48" transform="translate(1034.828125 0)"/>
      <use xlink:href="#DejaVuSans-3" transform="translate(1096.359375 0)"/>
      <use xlink:href="#DejaVuSans-4c" transform="translate(1128.140625 0)"/>
      <use xlink:href="#DejaVuSans-51" transform="translate(1155.921875 0)"/>
      <use xlink:href="#DejaVuSans-3" transform="translate(1219.296875 0)"/>
      <use xlink:href="#DejaVuSans-4a" transform="translate(1251.078125 0)"/>
      <use xlink:href="#DejaVuSans-44" transform="translate(1314.5625 0)"/>
      <use xlink:href="#DejaVuSans-56" transform="translate(1375.84375 0)"/>
      <use xlink:href="#DejaVuSans-3" transform="translate(1427.9375 0)"/>
      <use xlink:href="#DejaVuSans-58" transform="translate(1459.71875 0)"/>
      <use xlink:href="#DejaVuSans-56" transform="translate(1523.09375 0)"/>
      <use xlink:href="#DejaVuSans-48" transform="translate(1575.1875 0)"/>
      <use xlink:href="#DejaVuSans-47" transform="translate(1636.71875 0)"/>
      <use xlink:href="#DejaVuSans-3" transform="translate(1700.203125 0)"/>
      <use xlink:href="#DejaVuSans-b" transform="translate(1731.984375 0)"/>
      <use xlink:href="#DejaVuSans-8" transform="translate(1771 0)"/>
      <use xlink:href="#DejaVuSans-c" transform="translate(1866.015625 0)"/>
     </g>
    </g>
   </g>
   <g id="line2d_27">
    <path d="M 89.815542 45.637031 
L 1128.863968 45.637031 
" clip-path="url(#pa1bcdd47ee)" style="fill: none; stroke: #172033; stroke-width: 1.15; stroke-linecap: square"/>
   </g>
   <g id="patch_3">
    <path d="M 89.815542 453.782392 
L 89.815542 45.637031 
" style="fill: none; stroke: #dde4ee; stroke-width: 0.8; stroke-linejoin: miter; stroke-linecap: square"/>
   </g>
   <g id="patch_4">
    <path d="M 89.815542 453.782392 
L 1128.863968 453.782392 
" style="fill: none; stroke: #dde4ee; stroke-width: 0.8; stroke-linejoin: miter; stroke-linecap: square"/>
   </g>
   <g id="patch_5">
    <path d="M 137.045016 45.637031 
L 183.247762 45.637031 
L 183.247762 229.881466 
L 137.045016 229.881466 
z
" clip-path="url(#pa1bcdd47ee)" style="fill: #8b5cf6; stroke: #f7f9fc; stroke-width: 1.2; stroke-linejoin: miter"/>
   </g>
   <g id="patch_6">
    <path d="M 265.385978 45.637031 
L 311.588724 45.637031 
L 311.588724 385.758165 
L 265.385978 385.758165 
z
" clip-path="url(#pa1bcdd47ee)" style="fill: #8b5cf6; stroke: #f7f9fc; stroke-width: 1.2; stroke-linejoin: miter"/>
   </g>
   <g id="patch_7">
    <path d="M 393.72694 45.637031 
L 439.929686 45.637031 
L 439.929686 103.366606 
L 393.72694 103.366606 
z
" clip-path="url(#pa1bcdd47ee)" style="fill: #8b5cf6; stroke: #f7f9fc; stroke-width: 1.2; stroke-linejoin: miter"/>
   </g>
   <g id="patch_8">
    <path d="M 522.067901 45.637031 
L 568.270647 45.637031 
L 568.270647 223.651209 
L 522.067901 223.651209 
z
" clip-path="url(#pa1bcdd47ee)" style="fill: #8b5cf6; stroke: #f7f9fc; stroke-width: 1.2; stroke-linejoin: miter"/>
   </g>
   <g id="patch_9">
    <path d="M 650.408863 45.637031 
L 696.611609 45.637031 
L 696.611609 287.669317 
L 650.408863 287.669317 
z
" clip-path="url(#pa1bcdd47ee)" style="fill: #8b5cf6; stroke: #f7f9fc; stroke-width: 1.2; stroke-linejoin: miter"/>
   </g>
   <g id="patch_10">
    <path d="M 778.749824 45.637031 
L 824.952571 45.637031 
L 824.952571 294.209032 
L 778.749824 294.209032 
z
" clip-path="url(#pa1bcdd47ee)" style="fill: #8b5cf6; stroke: #f7f9fc; stroke-width: 1.2; stroke-linejoin: miter"/>
   </g>
   <g id="patch_11">
    <path d="M 907.090786 45.637031 
L 953.293532 45.637031 
L 953.293532 165.541506 
L 907.090786 165.541506 
z
" clip-path="url(#pa1bcdd47ee)" style="fill: #8b5cf6; stroke: #f7f9fc; stroke-width: 1.2; stroke-linejoin: miter"/>
   </g>
   <g id="patch_12">
    <path d="M 1035.431748 45.637031 
L 1081.634494 45.637031 
L 1081.634494 253.759668 
L 1035.431748 253.759668 
z
" clip-path="url(#pa1bcdd47ee)" style="fill: #8b5cf6; stroke: #f7f9fc; stroke-width: 1.2; stroke-linejoin: miter"/>
   </g>
   <g id="text_19">
    <!-- -9.2% -->
    <g style="fill: #172033" transform="translate(145.798421 240.719357) scale(0.09 -0.09)">
     <defs>
      <path id="DejaVuSans-Bold-10" d="M 347 2297 
L 2309 2297 
L 2309 1388 
L 347 1388 
L 347 2297 
z
" transform="scale(0.015625)"/>
      <path id="DejaVuSans-Bold-1c" d="M 641 103 
L 641 966 
Q 928 831 1190 764 
Q 1453 697 1709 697 
Q 2247 697 2547 995 
Q 2847 1294 2900 1881 
Q 2688 1725 2447 1647 
Q 2206 1569 1925 1569 
Q 1209 1569 770 1986 
Q 331 2403 331 3084 
Q 331 3838 820 4291 
Q 1309 4744 2131 4744 
Q 3044 4744 3544 4128 
Q 4044 3513 4044 2388 
Q 4044 1231 3459 570 
Q 2875 -91 1856 -91 
Q 1528 -91 1228 -42 
Q 928 6 641 103 
z
M 2125 2350 
Q 2441 2350 2600 2554 
Q 2759 2759 2759 3169 
Q 2759 3575 2600 3781 
Q 2441 3988 2125 3988 
Q 1809 3988 1650 3781 
Q 1491 3575 1491 3169 
Q 1491 2759 1650 2554 
Q 1809 2350 2125 2350 
z
" transform="scale(0.015625)"/>
      <path id="DejaVuSans-Bold-11" d="M 653 1209 
L 1778 1209 
L 1778 0 
L 653 0 
L 653 1209 
z
" transform="scale(0.015625)"/>
      <path id="DejaVuSans-Bold-15" d="M 1844 884 
L 3897 884 
L 3897 0 
L 506 0 
L 506 884 
L 2209 2388 
Q 2438 2594 2547 2791 
Q 2656 2988 2656 3200 
Q 2656 3528 2436 3728 
Q 2216 3928 1850 3928 
Q 1569 3928 1234 3808 
Q 900 3688 519 3450 
L 519 4475 
Q 925 4609 1322 4679 
Q 1719 4750 2100 4750 
Q 2938 4750 3402 4381 
Q 3866 4013 3866 3353 
Q 3866 2972 3669 2642 
Q 3472 2313 2841 1759 
L 1844 884 
z
" transform="scale(0.015625)"/>
      <path id="DejaVuSans-Bold-8" d="M 4959 1925 
Q 4738 1925 4616 1733 
Q 4494 1541 4494 1184 
Q 4494 825 4614 633 
Q 4734 441 4959 441 
Q 5184 441 5303 633 
Q 5422 825 5422 1184 
Q 5422 1541 5301 1733 
Q 5181 1925 4959 1925 
z
M 4959 2450 
Q 5541 2450 5875 2112 
Q 6209 1775 6209 1184 
Q 6209 594 5875 251 
Q 5541 -91 4959 -91 
Q 4378 -91 4042 251 
Q 3706 594 3706 1184 
Q 3706 1772 4042 2111 
Q 4378 2450 4959 2450 
z
M 2094 -91 
L 1403 -91 
L 4319 4750 
L 5013 4750 
L 2094 -91 
z
M 1453 4750 
Q 2034 4750 2367 4411 
Q 2700 4072 2700 3481 
Q 2700 2891 2367 2550 
Q 2034 2209 1453 2209 
Q 872 2209 539 2550 
Q 206 2891 206 3481 
Q 206 4072 539 4411 
Q 872 4750 1453 4750 
z
M 1453 4225 
Q 1228 4225 1106 4031 
Q 984 3838 984 3481 
Q 984 3122 1106 2926 
Q 1228 2731 1453 2731 
Q 1678 2731 1798 2926 
Q 1919 3122 1919 3481 
Q 1919 3838 1797 4031 
Q 1675 4225 1453 4225 
z
" transform="scale(0.015625)"/>
     </defs>
     <use xlink:href="#DejaVuSans-Bold-10"/>
     <use xlink:href="#DejaVuSans-Bold-1c" transform="translate(41.5 0)"/>
     <use xlink:href="#DejaVuSans-Bold-11" transform="translate(111.078125 0)"/>
     <use xlink:href="#DejaVuSans-Bold-15" transform="translate(149.0625 0)"/>
     <use xlink:href="#DejaVuSans-Bold-8" transform="translate(218.640625 0)"/>
    </g>
   </g>
   <g id="text_20">
    <!-- -17.0% -->
    <g style="fill: #172033" transform="translate(271.008367 396.596056) scale(0.09 -0.09)">
     <defs>
      <path id="DejaVuSans-Bold-14" d="M 750 831 
L 1813 831 
L 1813 3847 
L 722 3622 
L 722 4441 
L 1806 4666 
L 2950 4666 
L 2950 831 
L 4013 831 
L 4013 0 
L 750 0 
L 750 831 
z
" transform="scale(0.015625)"/>
      <path id="DejaVuSans-Bold-1a" d="M 428 4666 
L 3944 4666 
L 3944 3988 
L 2125 0 
L 953 0 
L 2675 3781 
L 428 3781 
L 428 4666 
z
" transform="scale(0.015625)"/>
      <path id="DejaVuSans-Bold-13" d="M 2944 2338 
Q 2944 3213 2780 3570 
Q 2616 3928 2228 3928 
Q 1841 3928 1675 3570 
Q 1509 3213 1509 2338 
Q 1509 1453 1675 1090 
Q 1841 728 2228 728 
Q 2613 728 2778 1090 
Q 2944 1453 2944 2338 
z
M 4147 2328 
Q 4147 1169 3647 539 
Q 3147 -91 2228 -91 
Q 1306 -91 806 539 
Q 306 1169 306 2328 
Q 306 3491 806 4120 
Q 1306 4750 2228 4750 
Q 3147 4750 3647 4120 
Q 4147 3491 4147 2328 
z
" transform="scale(0.015625)"/>
     </defs>
     <use xlink:href="#DejaVuSans-Bold-10"/>
     <use xlink:href="#DejaVuSans-Bold-14" transform="translate(41.5 0)"/>
     <use xlink:href="#DejaVuSans-Bold-1a" transform="translate(111.078125 0)"/>
     <use xlink:href="#DejaVuSans-Bold-11" transform="translate(180.65625 0)"/>
     <use xlink:href="#DejaVuSans-Bold-13" transform="translate(218.640625 0)"/>
     <use xlink:href="#DejaVuSans-Bold-8" transform="translate(288.21875 0)"/>
    </g>
   </g>
   <g id="text_21">
    <!-- -2.9% -->
    <g style="fill: #172033" transform="translate(402.480344 114.204497) scale(0.09 -0.09)">
     <use xlink:href="#DejaVuSans-Bold-10"/>
     <use xlink:href="#DejaVuSans-Bold-15" transform="translate(41.5 0)"/>
     <use xlink:href="#DejaVuSans-Bold-11" transform="translate(111.078125 0)"/>
     <use xlink:href="#DejaVuSans-Bold-1c" transform="translate(149.0625 0)"/>
     <use xlink:href="#DejaVuSans-Bold-8" transform="translate(218.640625 0)"/>
    </g>
   </g>
   <g id="text_22">
    <!-- -8.9% -->
    <g style="fill: #172033" transform="translate(530.821305 234.4891) scale(0.09 -0.09)">
     <defs>
      <path id="DejaVuSans-Bold-1b" d="M 2228 2088 
Q 1891 2088 1709 1903 
Q 1528 1719 1528 1375 
Q 1528 1031 1709 848 
Q 1891 666 2228 666 
Q 2563 666 2741 848 
Q 2919 1031 2919 1375 
Q 2919 1722 2741 1905 
Q 2563 2088 2228 2088 
z
M 1350 2484 
Q 925 2613 709 2878 
Q 494 3144 494 3541 
Q 494 4131 934 4440 
Q 1375 4750 2228 4750 
Q 3075 4750 3515 4442 
Q 3956 4134 3956 3541 
Q 3956 3144 3739 2878 
Q 3522 2613 3097 2484 
Q 3572 2353 3814 2058 
Q 4056 1763 4056 1313 
Q 4056 619 3595 264 
Q 3134 -91 2228 -91 
Q 1319 -91 855 264 
Q 391 619 391 1313 
Q 391 1763 633 2058 
Q 875 2353 1350 2484 
z
M 1631 3419 
Q 1631 3141 1786 2991 
Q 1941 2841 2228 2841 
Q 2509 2841 2662 2991 
Q 2816 3141 2816 3419 
Q 2816 3697 2662 3845 
Q 2509 3994 2228 3994 
Q 1941 3994 1786 3844 
Q 1631 3694 1631 3419 
z
" transform="scale(0.015625)"/>
     </defs>
     <use xlink:href="#DejaVuSans-Bold-10"/>
     <use xlink:href="#DejaVuSans-Bold-1b" transform="translate(41.5 0)"/>
     <use xlink:href="#DejaVuSans-Bold-11" transform="translate(111.078125 0)"/>
     <use xlink:href="#DejaVuSans-Bold-1c" transform="translate(149.0625 0)"/>
     <use xlink:href="#DejaVuSans-Bold-8" transform="translate(218.640625 0)"/>
    </g>
   </g>
   <g id="text_23">
    <!-- -12.1% -->
    <g style="fill: #172033" transform="translate(656.031251 298.507208) scale(0.09 -0.09)">
     <use xlink:href="#DejaVuSans-Bold-10"/>
     <use xlink:href="#DejaVuSans-Bold-14" transform="translate(41.5 0)"/>
     <use xlink:href="#DejaVuSans-Bold-15" transform="translate(111.078125 0)"/>
     <use xlink:href="#DejaVuSans-Bold-11" transform="translate(180.65625 0)"/>
     <use xlink:href="#DejaVuSans-Bold-14" transform="translate(218.640625 0)"/>
     <use xlink:href="#DejaVuSans-Bold-8" transform="translate(288.21875 0)"/>
    </g>
   </g>
   <g id="text_24">
    <!-- -12.4% -->
    <g style="fill: #172033" transform="translate(784.372213 305.046922) scale(0.09 -0.09)">
     <defs>
      <path id="DejaVuSans-Bold-17" d="M 2356 3675 
L 1038 1722 
L 2356 1722 
L 2356 3675 
z
M 2156 4666 
L 3494 4666 
L 3494 1722 
L 4159 1722 
L 4159 850 
L 3494 850 
L 3494 0 
L 2356 0 
L 2356 850 
L 288 850 
L 288 1881 
L 2156 4666 
z
" transform="scale(0.015625)"/>
     </defs>
     <use xlink:href="#DejaVuSans-Bold-10"/>
     <use xlink:href="#DejaVuSans-Bold-14" transform="translate(41.5 0)"/>
     <use xlink:href="#DejaVuSans-Bold-15" transform="translate(111.078125 0)"/>
     <use xlink:href="#DejaVuSans-Bold-11" transform="translate(180.65625 0)"/>
     <use xlink:href="#DejaVuSans-Bold-17" transform="translate(218.640625 0)"/>
     <use xlink:href="#DejaVuSans-Bold-8" transform="translate(288.21875 0)"/>
    </g>
   </g>
   <g id="text_25">
    <!-- -6.0% -->
    <g style="fill: #172033" transform="translate(915.84419 176.379397) scale(0.09 -0.09)">
     <defs>
      <path id="DejaVuSans-Bold-19" d="M 2316 2303 
Q 2000 2303 1842 2098 
Q 1684 1894 1684 1484 
Q 1684 1075 1842 870 
Q 2000 666 2316 666 
Q 2634 666 2792 870 
Q 2950 1075 2950 1484 
Q 2950 1894 2792 2098 
Q 2634 2303 2316 2303 
z
M 3803 4544 
L 3803 3681 
Q 3506 3822 3243 3889 
Q 2981 3956 2731 3956 
Q 2194 3956 1894 3657 
Q 1594 3359 1544 2772 
Q 1750 2925 1990 3001 
Q 2231 3078 2516 3078 
Q 3231 3078 3670 2659 
Q 4109 2241 4109 1563 
Q 4109 813 3618 361 
Q 3128 -91 2303 -91 
Q 1394 -91 895 523 
Q 397 1138 397 2266 
Q 397 3422 980 4083 
Q 1563 4744 2578 4744 
Q 2900 4744 3203 4694 
Q 3506 4644 3803 4544 
z
" transform="scale(0.015625)"/>
     </defs>
     <use xlink:href="#DejaVuSans-Bold-10"/>
     <use xlink:href="#DejaVuSans-Bold-19" transform="translate(41.5 0)"/>
     <use xlink:href="#DejaVuSans-Bold-11" transform="translate(111.078125 0)"/>
     <use xlink:href="#DejaVuSans-Bold-13" transform="translate(149.0625 0)"/>
     <use xlink:href="#DejaVuSans-Bold-8" transform="translate(218.640625 0)"/>
    </g>
   </g>
   <g id="text_26">
    <!-- -10.4% -->
    <g style="fill: #172033" transform="translate(1041.054136 264.597559) scale(0.09 -0.09)">
     <use xlink:href="#DejaVuSans-Bold-10"/>
     <use xlink:href="#DejaVuSans-Bold-14" transform="translate(41.5 0)"/>
     <use xlink:href="#DejaVuSans-Bold-13" transform="translate(111.078125 0)"/>
     <use xlink:href="#DejaVuSans-Bold-11" transform="translate(180.65625 0)"/>
     <use xlink:href="#DejaVuSans-Bold-17" transform="translate(218.640625 0)"/>
     <use xlink:href="#DejaVuSans-Bold-8" transform="translate(288.21875 0)"/>
    </g>
   </g>
   <g id="text_27">
    <!-- Native B20 gas percentage difference -->
    <g style="fill: #172033" transform="translate(406.866552 21.637031) scale(0.19 -0.19)">
     <defs>
      <path id="DejaVuSans-Bold-31" d="M 588 4666 
L 1931 4666 
L 3628 1466 
L 3628 4666 
L 4769 4666 
L 4769 0 
L 3425 0 
L 1728 3200 
L 1728 0 
L 588 0 
L 588 4666 
z
" transform="scale(0.015625)"/>
      <path id="DejaVuSans-Bold-44" d="M 2106 1575 
Q 1756 1575 1579 1456 
Q 1403 1338 1403 1106 
Q 1403 894 1545 773 
Q 1688 653 1941 653 
Q 2256 653 2472 879 
Q 2688 1106 2688 1447 
L 2688 1575 
L 2106 1575 
z
M 3816 1997 
L 3816 0 
L 2688 0 
L 2688 519 
Q 2463 200 2181 54 
Q 1900 -91 1497 -91 
Q 953 -91 614 226 
Q 275 544 275 1050 
Q 275 1666 698 1953 
Q 1122 2241 2028 2241 
L 2688 2241 
L 2688 2328 
Q 2688 2594 2478 2717 
Q 2269 2841 1825 2841 
Q 1466 2841 1156 2769 
Q 847 2697 581 2553 
L 581 3406 
Q 941 3494 1303 3539 
Q 1666 3584 2028 3584 
Q 2975 3584 3395 3211 
Q 3816 2838 3816 1997 
z
" transform="scale(0.015625)"/>
      <path id="DejaVuSans-Bold-57" d="M 1759 4494 
L 1759 3500 
L 2913 3500 
L 2913 2700 
L 1759 2700 
L 1759 1216 
Q 1759 972 1856 886 
Q 1953 800 2241 800 
L 2816 800 
L 2816 0 
L 1856 0 
Q 1194 0 917 276 
Q 641 553 641 1216 
L 641 2700 
L 84 2700 
L 84 3500 
L 641 3500 
L 641 4494 
L 1759 4494 
z
" transform="scale(0.015625)"/>
      <path id="DejaVuSans-Bold-4c" d="M 538 3500 
L 1656 3500 
L 1656 0 
L 538 0 
L 538 3500 
z
M 538 4863 
L 1656 4863 
L 1656 3950 
L 538 3950 
L 538 4863 
z
" transform="scale(0.015625)"/>
      <path id="DejaVuSans-Bold-59" d="M 97 3500 
L 1216 3500 
L 2088 1081 
L 2956 3500 
L 4078 3500 
L 2700 0 
L 1472 0 
L 97 3500 
z
" transform="scale(0.015625)"/>
      <path id="DejaVuSans-Bold-48" d="M 4031 1759 
L 4031 1441 
L 1416 1441 
Q 1456 1047 1700 850 
Q 1944 653 2381 653 
Q 2734 653 3104 758 
Q 3475 863 3866 1075 
L 3866 213 
Q 3469 63 3072 -14 
Q 2675 -91 2278 -91 
Q 1328 -91 801 392 
Q 275 875 275 1747 
Q 275 2603 792 3093 
Q 1309 3584 2216 3584 
Q 3041 3584 3536 3087 
Q 4031 2591 4031 1759 
z
M 2881 2131 
Q 2881 2450 2695 2645 
Q 2509 2841 2209 2841 
Q 1884 2841 1681 2658 
Q 1478 2475 1428 2131 
L 2881 2131 
z
" transform="scale(0.015625)"/>
      <path id="DejaVuSans-Bold-3" transform="scale(0.015625)"/>
      <path id="DejaVuSans-Bold-25" d="M 2456 2859 
Q 2741 2859 2887 2984 
Q 3034 3109 3034 3353 
Q 3034 3594 2887 3720 
Q 2741 3847 2456 3847 
L 1791 3847 
L 1791 2859 
L 2456 2859 
z
M 2497 819 
Q 2859 819 3042 972 
Q 3225 1125 3225 1434 
Q 3225 1738 3044 1889 
Q 2863 2041 2497 2041 
L 1791 2041 
L 1791 819 
L 2497 819 
z
M 3616 2497 
Q 4003 2384 4215 2081 
Q 4428 1778 4428 1338 
Q 4428 663 3972 331 
Q 3516 0 2584 0 
L 588 0 
L 588 4666 
L 2394 4666 
Q 3366 4666 3802 4372 
Q 4238 4078 4238 3431 
Q 4238 3091 4078 2852 
Q 3919 2613 3616 2497 
z
" transform="scale(0.015625)"/>
      <path id="DejaVuSans-Bold-4a" d="M 2919 594 
Q 2688 288 2409 144 
Q 2131 0 1766 0 
Q 1125 0 706 504 
Q 288 1009 288 1791 
Q 288 2575 706 3076 
Q 1125 3578 1766 3578 
Q 2131 3578 2409 3434 
Q 2688 3291 2919 2981 
L 2919 3500 
L 4044 3500 
L 4044 353 
Q 4044 -491 3511 -936 
Q 2978 -1381 1966 -1381 
Q 1638 -1381 1331 -1331 
Q 1025 -1281 716 -1178 
L 716 -306 
Q 1009 -475 1290 -558 
Q 1572 -641 1856 -641 
Q 2406 -641 2662 -400 
Q 2919 -159 2919 353 
L 2919 594 
z
M 2181 2772 
Q 1834 2772 1640 2515 
Q 1447 2259 1447 1791 
Q 1447 1309 1634 1061 
Q 1822 813 2181 813 
Q 2531 813 2725 1069 
Q 2919 1325 2919 1791 
Q 2919 2259 2725 2515 
Q 2531 2772 2181 2772 
z
" transform="scale(0.015625)"/>
      <path id="DejaVuSans-Bold-56" d="M 3272 3391 
L 3272 2541 
Q 2913 2691 2578 2766 
Q 2244 2841 1947 2841 
Q 1628 2841 1473 2761 
Q 1319 2681 1319 2516 
Q 1319 2381 1436 2309 
Q 1553 2238 1856 2203 
L 2053 2175 
Q 2913 2066 3209 1816 
Q 3506 1566 3506 1031 
Q 3506 472 3093 190 
Q 2681 -91 1863 -91 
Q 1516 -91 1145 -36 
Q 775 19 384 128 
L 384 978 
Q 719 816 1070 734 
Q 1422 653 1784 653 
Q 2113 653 2278 743 
Q 2444 834 2444 1013 
Q 2444 1163 2330 1236 
Q 2216 1309 1875 1350 
L 1678 1375 
Q 931 1469 631 1722 
Q 331 1975 331 2491 
Q 331 3047 712 3315 
Q 1094 3584 1881 3584 
Q 2191 3584 2531 3537 
Q 2872 3491 3272 3391 
z
" transform="scale(0.015625)"/>
      <path id="DejaVuSans-Bold-53" d="M 1656 506 
L 1656 -1331 
L 538 -1331 
L 538 3500 
L 1656 3500 
L 1656 2988 
Q 1888 3294 2169 3439 
Q 2450 3584 2816 3584 
Q 3463 3584 3878 3070 
Q 4294 2556 4294 1747 
Q 4294 938 3878 423 
Q 3463 -91 2816 -91 
Q 2450 -91 2169 54 
Q 1888 200 1656 506 
z
M 2400 2772 
Q 2041 2772 1848 2508 
Q 1656 2244 1656 1747 
Q 1656 1250 1848 986 
Q 2041 722 2400 722 
Q 2759 722 2948 984 
Q 3138 1247 3138 1747 
Q 3138 2247 2948 2509 
Q 2759 2772 2400 2772 
z
" transform="scale(0.015625)"/>
      <path id="DejaVuSans-Bold-55" d="M 3138 2547 
Q 2991 2616 2845 2648 
Q 2700 2681 2553 2681 
Q 2122 2681 1889 2404 
Q 1656 2128 1656 1613 
L 1656 0 
L 538 0 
L 538 3500 
L 1656 3500 
L 1656 2925 
Q 1872 3269 2151 3426 
Q 2431 3584 2822 3584 
Q 2878 3584 2943 3579 
Q 3009 3575 3134 3559 
L 3138 2547 
z
" transform="scale(0.015625)"/>
      <path id="DejaVuSans-Bold-46" d="M 3366 3391 
L 3366 2478 
Q 3138 2634 2908 2709 
Q 2678 2784 2431 2784 
Q 1963 2784 1702 2511 
Q 1441 2238 1441 1747 
Q 1441 1256 1702 982 
Q 1963 709 2431 709 
Q 2694 709 2930 787 
Q 3166 866 3366 1019 
L 3366 103 
Q 3103 6 2833 -42 
Q 2563 -91 2291 -91 
Q 1344 -91 809 395 
Q 275 881 275 1747 
Q 275 2613 809 3098 
Q 1344 3584 2291 3584 
Q 2566 3584 2833 3536 
Q 3100 3488 3366 3391 
z
" transform="scale(0.015625)"/>
      <path id="DejaVuSans-Bold-51" d="M 4056 2131 
L 4056 0 
L 2931 0 
L 2931 347 
L 2931 1631 
Q 2931 2084 2911 2256 
Q 2891 2428 2841 2509 
Q 2775 2619 2662 2680 
Q 2550 2741 2406 2741 
Q 2056 2741 1856 2470 
Q 1656 2200 1656 1722 
L 1656 0 
L 538 0 
L 538 3500 
L 1656 3500 
L 1656 2988 
Q 1909 3294 2193 3439 
Q 2478 3584 2822 3584 
Q 3428 3584 3742 3212 
Q 4056 2841 4056 2131 
z
" transform="scale(0.015625)"/>
      <path id="DejaVuSans-Bold-47" d="M 2919 2988 
L 2919 4863 
L 4044 4863 
L 4044 0 
L 2919 0 
L 2919 506 
Q 2688 197 2409 53 
Q 2131 -91 1766 -91 
Q 1119 -91 703 423 
Q 288 938 288 1747 
Q 288 2556 703 3070 
Q 1119 3584 1766 3584 
Q 2128 3584 2408 3439 
Q 2688 3294 2919 2988 
z
M 2181 722 
Q 2541 722 2730 984 
Q 2919 1247 2919 1747 
Q 2919 2247 2730 2509 
Q 2541 2772 2181 2772 
Q 1825 2772 1636 2509 
Q 1447 2247 1447 1747 
Q 1447 1247 1636 984 
Q 1825 722 2181 722 
z
" transform="scale(0.015625)"/>
      <path id="DejaVuSans-Bold-13aa" d="M 2841 4863 
L 2841 4128 
L 2222 4128 
Q 1984 4128 1891 4044 
Q 1797 3956 1797 3744 
L 1797 3500 
L 3078 3500 
L 3078 3744 
Q 3078 4316 3397 4588 
Q 3716 4863 4384 4863 
L 5241 4863 
L 5241 4128 
L 4622 4128 
Q 4384 4128 4291 4044 
Q 4197 3956 4197 3744 
L 4197 3500 
L 5153 3500 
L 5153 2700 
L 4197 2700 
L 4197 0 
L 3078 0 
L 3078 2700 
L 1797 2700 
L 1797 0 
L 678 0 
L 678 2700 
L 122 2700 
L 122 3500 
L 678 3500 
L 678 3744 
Q 678 4316 997 4588 
Q 1316 4863 1984 4863 
L 2841 4863 
z
" transform="scale(0.015625)"/>
     </defs>
     <use xlink:href="#DejaVuSans-Bold-31"/>
     <use xlink:href="#DejaVuSans-Bold-44" transform="translate(83.6875 0)"/>
     <use xlink:href="#DejaVuSans-Bold-57" transform="translate(151.171875 0)"/>
     <use xlink:href="#DejaVuSans-Bold-4c" transform="translate(198.96875 0)"/>
     <use xlink:href="#DejaVuSans-Bold-59" transform="translate(233.25 0)"/>
     <use xlink:href="#DejaVuSans-Bold-48" transform="translate(298.4375 0)"/>
     <use xlink:href="#DejaVuSans-Bold-3" transform="translate(366.265625 0)"/>
     <use xlink:href="#DejaVuSans-Bold-25" transform="translate(401.078125 0)"/>
     <use xlink:href="#DejaVuSans-Bold-15" transform="translate(477.296875 0)"/>
     <use xlink:href="#DejaVuSans-Bold-13" transform="translate(546.875 0)"/>
     <use xlink:href="#DejaVuSans-Bold-3" transform="translate(616.453125 0)"/>
     <use xlink:href="#DejaVuSans-Bold-4a" transform="translate(651.265625 0)"/>
     <use xlink:href="#DejaVuSans-Bold-44" transform="translate(722.84375 0)"/>
     <use xlink:href="#DejaVuSans-Bold-56" transform="translate(790.328125 0)"/>
     <use xlink:href="#DejaVuSans-Bold-3" transform="translate(849.84375 0)"/>
     <use xlink:href="#DejaVuSans-Bold-53" transform="translate(884.65625 0)"/>
     <use xlink:href="#DejaVuSans-Bold-48" transform="translate(956.234375 0)"/>
     <use xlink:href="#DejaVuSans-Bold-55" transform="translate(1024.0625 0)"/>
     <use xlink:href="#DejaVuSans-Bold-46" transform="translate(1073.375 0)"/>
     <use xlink:href="#DejaVuSans-Bold-48" transform="translate(1132.65625 0)"/>
     <use xlink:href="#DejaVuSans-Bold-51" transform="translate(1200.484375 0)"/>
     <use xlink:href="#DejaVuSans-Bold-57" transform="translate(1271.671875 0)"/>
     <use xlink:href="#DejaVuSans-Bold-44" transform="translate(1319.46875 0)"/>
     <use xlink:href="#DejaVuSans-Bold-4a" transform="translate(1386.953125 0)"/>
     <use xlink:href="#DejaVuSans-Bold-48" transform="translate(1458.53125 0)"/>
     <use xlink:href="#DejaVuSans-Bold-3" transform="translate(1526.359375 0)"/>
     <use xlink:href="#DejaVuSans-Bold-47" transform="translate(1561.171875 0)"/>
     <use xlink:href="#DejaVuSans-Bold-4c" transform="translate(1632.75 0)"/>
     <use xlink:href="#DejaVuSans-Bold-13aa" transform="translate(1667.03125 0)"/>
     <use xlink:href="#DejaVuSans-Bold-48" transform="translate(1748.03125 0)"/>
     <use xlink:href="#DejaVuSans-Bold-55" transform="translate(1815.859375 0)"/>
     <use xlink:href="#DejaVuSans-Bold-48" transform="translate(1865.171875 0)"/>
     <use xlink:href="#DejaVuSans-Bold-51" transform="translate(1933 0)"/>
     <use xlink:href="#DejaVuSans-Bold-46" transform="translate(2004.1875 0)"/>
     <use xlink:href="#DejaVuSans-Bold-48" transform="translate(2063.46875 0)"/>
    </g>
   </g>
   <g id="legend_1">
    <g id="patch_13">
     <path d="M 529.095614 69.374983 
L 689.583896 69.374983 
Q 691.783896 69.374983 691.783896 67.174983 
L 691.783896 45.174124 
Q 691.783896 42.974124 689.583896 42.974124 
L 529.095614 42.974124 
Q 526.895614 42.974124 526.895614 45.174124 
L 526.895614 67.174983 
Q 526.895614 69.374983 529.095614 69.374983 
z
" style="fill: #ffffff; stroke: #dde4ee; stroke-linejoin: miter"/>
    </g>
    <g id="patch_14">
     <path d="M 534.595614 59.032405 
L 556.595614 59.032405 
L 556.595614 51.332405 
L 534.595614 51.332405 
z
" style="fill: #8b5cf6; stroke: #f7f9fc; stroke-width: 1.2; stroke-linejoin: miter"/>
    </g>
    <g id="text_28">
     <!-- vs MockB20 (Solidity) -->
     <g transform="translate(565.395614 59.032405) scale(0.11 -0.11)">
      <defs>
       <path id="DejaVuSans-30" d="M 628 4666 
L 1569 4666 
L 2759 1491 
L 3956 4666 
L 4897 4666 
L 4897 0 
L 4281 0 
L 4281 4097 
L 3078 897 
L 2444 897 
L 1241 4097 
L 1241 0 
L 628 0 
L 628 4666 
z
" transform="scale(0.015625)"/>
       <path id="DejaVuSans-4e" d="M 581 4863 
L 1159 4863 
L 1159 1991 
L 2875 3500 
L 3609 3500 
L 1753 1863 
L 3688 0 
L 2938 0 
L 1159 1709 
L 1159 0 
L 581 0 
L 581 4863 
z
" transform="scale(0.015625)"/>
       <path id="DejaVuSans-25" d="M 1259 2228 
L 1259 519 
L 2272 519 
Q 2781 519 3026 730 
Q 3272 941 3272 1375 
Q 3272 1813 3026 2020 
Q 2781 2228 2272 2228 
L 1259 2228 
z
M 1259 4147 
L 1259 2741 
L 2194 2741 
Q 2656 2741 2882 2914 
Q 3109 3088 3109 3444 
Q 3109 3797 2882 3972 
Q 2656 4147 2194 4147 
L 1259 4147 
z
M 628 4666 
L 2241 4666 
Q 2963 4666 3353 4366 
Q 3744 4066 3744 3513 
Q 3744 3084 3544 2831 
Q 3344 2578 2956 2516 
Q 3422 2416 3680 2098 
Q 3938 1781 3938 1306 
Q 3938 681 3513 340 
Q 3088 0 2303 0 
L 628 0 
L 628 4666 
z
" transform="scale(0.015625)"/>
       <path id="DejaVuSans-36" d="M 3425 4513 
L 3425 3897 
Q 3066 4069 2747 4153 
Q 2428 4238 2131 4238 
Q 1616 4238 1336 4038 
Q 1056 3838 1056 3469 
Q 1056 3159 1242 3001 
Q 1428 2844 1947 2747 
L 2328 2669 
Q 3034 2534 3370 2195 
Q 3706 1856 3706 1288 
Q 3706 609 3251 259 
Q 2797 -91 1919 -91 
Q 1588 -91 1214 -16 
Q 841 59 441 206 
L 441 856 
Q 825 641 1194 531 
Q 1563 422 1919 422 
Q 2459 422 2753 634 
Q 3047 847 3047 1241 
Q 3047 1584 2836 1778 
Q 2625 1972 2144 2069 
L 1759 2144 
Q 1053 2284 737 2584 
Q 422 2884 422 3419 
Q 422 4038 858 4394 
Q 1294 4750 2059 4750 
Q 2388 4750 2728 4690 
Q 3069 4631 3425 4513 
z
" transform="scale(0.015625)"/>
       <path id="DejaVuSans-5c" d="M 2059 -325 
Q 1816 -950 1584 -1140 
Q 1353 -1331 966 -1331 
L 506 -1331 
L 506 -850 
L 844 -850 
Q 1081 -850 1212 -737 
Q 1344 -625 1503 -206 
L 1606 56 
L 191 3500 
L 800 3500 
L 1894 763 
L 2988 3500 
L 3597 3500 
L 2059 -325 
z
" transform="scale(0.015625)"/>
      </defs>
      <use xlink:href="#DejaVuSans-59"/>
      <use xlink:href="#DejaVuSans-56" transform="translate(59.1875 0)"/>
      <use xlink:href="#DejaVuSans-3" transform="translate(111.28125 0)"/>
      <use xlink:href="#DejaVuSans-30" transform="translate(143.0625 0)"/>
      <use xlink:href="#DejaVuSans-52" transform="translate(229.34375 0)"/>
      <use xlink:href="#DejaVuSans-46" transform="translate(290.53125 0)"/>
      <use xlink:href="#DejaVuSans-4e" transform="translate(345.515625 0)"/>
      <use xlink:href="#DejaVuSans-25" transform="translate(403.421875 0)"/>
      <use xlink:href="#DejaVuSans-15" transform="translate(472.03125 0)"/>
      <use xlink:href="#DejaVuSans-13" transform="translate(535.65625 0)"/>
      <use xlink:href="#DejaVuSans-3" transform="translate(599.28125 0)"/>
      <use xlink:href="#DejaVuSans-b" transform="translate(631.0625 0)"/>
      <use xlink:href="#DejaVuSans-36" transform="translate(670.078125 0)"/>
      <use xlink:href="#DejaVuSans-52" transform="translate(733.5625 0)"/>
      <use xlink:href="#DejaVuSans-4f" transform="translate(794.75 0)"/>
      <use xlink:href="#DejaVuSans-4c" transform="translate(822.53125 0)"/>
      <use xlink:href="#DejaVuSans-47" transform="translate(850.3125 0)"/>
      <use xlink:href="#DejaVuSans-4c" transform="translate(913.796875 0)"/>
      <use xlink:href="#DejaVuSans-57" transform="translate(941.578125 0)"/>
      <use xlink:href="#DejaVuSans-5c" transform="translate(980.78125 0)"/>
      <use xlink:href="#DejaVuSans-c" transform="translate(1039.96875 0)"/>
     </g>
    </g>
   </g>
  </g>
  <g id="text_29">
   <!-- @0xOptimus -->
   <g style="fill: #526078" transform="translate(1030.152093 562.198203) scale(0.14 -0.14)">
    <defs>
     <path id="DejaVuSans-Bold-23" d="M 2597 1684 
Q 2597 1300 2761 1078 
Q 2925 856 3206 856 
Q 3484 856 3650 1079 
Q 3816 1303 3816 1684 
Q 3816 2063 3648 2283 
Q 3481 2503 3200 2503 
Q 2925 2503 2761 2283 
Q 2597 2063 2597 1684 
z
M 3878 744 
Q 3784 522 3576 398 
Q 3369 275 3091 275 
Q 2553 275 2217 664 
Q 1881 1053 1881 1678 
Q 1881 2303 2218 2693 
Q 2556 3084 3091 3084 
Q 3369 3084 3576 2959 
Q 3784 2834 3878 2613 
L 3878 3022 
L 4531 3022 
L 4531 856 
Q 4919 916 5141 1230 
Q 5363 1544 5363 2034 
Q 5363 2347 5272 2620 
Q 5181 2894 4997 3122 
Q 4700 3503 4254 3709 
Q 3809 3916 3291 3916 
Q 2928 3916 2597 3820 
Q 2266 3725 1984 3541 
Q 1522 3234 1264 2748 
Q 1006 2263 1006 1697 
Q 1006 1231 1173 823 
Q 1341 416 1656 103 
Q 1969 -203 2373 -364 
Q 2778 -525 3238 -525 
Q 3631 -525 4025 -378 
Q 4419 -231 4697 19 
L 5031 -488 
Q 4641 -791 4180 -952 
Q 3719 -1113 3244 -1113 
Q 2666 -1113 2153 -908 
Q 1641 -703 1241 -313 
Q 841 78 631 592 
Q 422 1106 422 1697 
Q 422 2266 634 2781 
Q 847 3297 1241 3688 
Q 1634 4075 2157 4287 
Q 2681 4500 3244 4500 
Q 3944 4500 4516 4233 
Q 5088 3966 5472 3463 
Q 5706 3156 5826 2798 
Q 5947 2441 5947 2047 
Q 5947 1200 5437 731 
Q 4928 263 4000 263 
L 3878 263 
L 3878 744 
z
" transform="scale(0.015625)"/>
     <path id="DejaVuSans-Bold-5b" d="M 1422 1791 
L 159 3500 
L 1344 3500 
L 2059 2463 
L 2784 3500 
L 3969 3500 
L 2706 1797 
L 4031 0 
L 2847 0 
L 2059 1106 
L 1281 0 
L 97 0 
L 1422 1791 
z
" transform="scale(0.015625)"/>
     <path id="DejaVuSans-Bold-32" d="M 2719 3878 
Q 2169 3878 1866 3472 
Q 1563 3066 1563 2328 
Q 1563 1594 1866 1187 
Q 2169 781 2719 781 
Q 3272 781 3575 1187 
Q 3878 1594 3878 2328 
Q 3878 3066 3575 3472 
Q 3272 3878 2719 3878 
z
M 2719 4750 
Q 3844 4750 4481 4106 
Q 5119 3463 5119 2328 
Q 5119 1197 4481 553 
Q 3844 -91 2719 -91 
Q 1597 -91 958 553 
Q 319 1197 319 2328 
Q 319 3463 958 4106 
Q 1597 4750 2719 4750 
z
" transform="scale(0.015625)"/>
     <path id="DejaVuSans-Bold-50" d="M 3781 2919 
Q 3994 3244 4286 3414 
Q 4578 3584 4928 3584 
Q 5531 3584 5847 3212 
Q 6163 2841 6163 2131 
L 6163 0 
L 5038 0 
L 5038 1825 
Q 5041 1866 5042 1909 
Q 5044 1953 5044 2034 
Q 5044 2406 4934 2573 
Q 4825 2741 4581 2741 
Q 4263 2741 4089 2478 
Q 3916 2216 3909 1719 
L 3909 0 
L 2784 0 
L 2784 1825 
Q 2784 2406 2684 2573 
Q 2584 2741 2328 2741 
Q 2006 2741 1831 2477 
Q 1656 2213 1656 1722 
L 1656 0 
L 531 0 
L 531 3500 
L 1656 3500 
L 1656 2988 
Q 1863 3284 2130 3434 
Q 2397 3584 2719 3584 
Q 3081 3584 3359 3409 
Q 3638 3234 3781 2919 
z
" transform="scale(0.015625)"/>
     <path id="DejaVuSans-Bold-58" d="M 500 1363 
L 500 3500 
L 1625 3500 
L 1625 3150 
Q 1625 2866 1622 2436 
Q 1619 2006 1619 1863 
Q 1619 1441 1641 1255 
Q 1663 1069 1716 984 
Q 1784 875 1895 815 
Q 2006 756 2150 756 
Q 2500 756 2700 1025 
Q 2900 1294 2900 1772 
L 2900 3500 
L 4019 3500 
L 4019 0 
L 2900 0 
L 2900 506 
Q 2647 200 2364 54 
Q 2081 -91 1741 -91 
Q 1134 -91 817 281 
Q 500 653 500 1363 
z
" transform="scale(0.015625)"/>
    </defs>
    <use xlink:href="#DejaVuSans-Bold-23"/>
    <use xlink:href="#DejaVuSans-Bold-13" transform="translate(100 0)"/>
    <use xlink:href="#DejaVuSans-Bold-5b" transform="translate(169.578125 0)"/>
    <use xlink:href="#DejaVuSans-Bold-32" transform="translate(234.078125 0)"/>
    <use xlink:href="#DejaVuSans-Bold-53" transform="translate(319.09375 0)"/>
    <use xlink:href="#DejaVuSans-Bold-57" transform="translate(390.671875 0)"/>
    <use xlink:href="#DejaVuSans-Bold-4c" transform="translate(438.46875 0)"/>
    <use xlink:href="#DejaVuSans-Bold-50" transform="translate(472.75 0)"/>
    <use xlink:href="#DejaVuSans-Bold-58" transform="translate(576.953125 0)"/>
    <use xlink:href="#DejaVuSans-Bold-56" transform="translate(648.140625 0)"/>
   </g>
  </g>
 </g>
 <defs>
  <clipPath id="pa1bcdd47ee">
   <rect x="89.815542" y="45.637031" width="1039.048425" height="408.14536"/>
  </clipPath>
 </defs>
</svg>
